<svg xmlns="http://www.w3.org/2000/svg" viewBox="0 0 156.77 158.12"><defs><style>.cls-1{fill:#32cbcc;}.cls-2{fill:#110239;}.cls-3{fill:#d0d1de;}.cls-4{fill:#fff;}.cls-5{fill:#e4e5ec;}.cls-6{fill:#01c7e2;}.cls-7{fill:#fd425f;}.cls-8{fill:#f88667;}.cls-9{fill:#e45940;}.cls-10{fill:#00a7cc;}.cls-11{fill:#e42244;}</style></defs><title>iconRecurso 5</title><g id="Capa_2" data-name="Capa 2"><g id="Capa_1-2" data-name="Capa 1"><path class="cls-1" d="M147.15,80.59A70.08,70.08,0,1,1,77.08,10.52,70.08,70.08,0,0,1,147.15,80.59Z"/><path class="cls-1" d="M92.33,13.67a6.62,6.62,0,1,1-6.62-6.61A6.62,6.62,0,0,1,92.33,13.67Z"/><path class="cls-1" d="M99.24,19.11a3.17,3.17,0,1,1-3.17-3.17A3.17,3.17,0,0,1,99.24,19.11Z"/><path class="cls-1" d="M148.66,87.59a8.36,8.36,0,1,1-8.36-8.36A8.36,8.36,0,0,1,148.66,87.59Z"/><path class="cls-1" d="M156.77,70.66a5.91,5.91,0,1,1-5.91-5.91A5.91,5.91,0,0,1,156.77,70.66Z"/><path class="cls-1" d="M18.85,51.15a9.43,9.43,0,1,1-9.42-9.42A9.43,9.43,0,0,1,18.85,51.15Z"/><path class="cls-1" d="M73.2,145.93a8.09,8.09,0,1,1-8.09-8.09A8.09,8.09,0,0,1,73.2,145.93Z"/><path class="cls-1" d="M21,29.86a6,6,0,1,1-6-6A6,6,0,0,1,21,29.86Z"/><path class="cls-1" d="M62.76,4a4,4,0,1,1-4-4A4,4,0,0,1,62.76,4Z"/><path class="cls-1" d="M126.81,4.93a3,3,0,1,1-3-3A3,3,0,0,1,126.81,4.93Z"/><path class="cls-1" d="M37,13.67a3,3,0,1,1-3-3A3,3,0,0,1,37,13.67Z"/><path class="cls-1" d="M117.59,8.06a6.13,6.13,0,1,1-6.13-6.13A6.13,6.13,0,0,1,117.59,8.06Z"/><path class="cls-1" d="M57.28,21.19A8.89,8.89,0,1,1,48.4,12.3,8.88,8.88,0,0,1,57.28,21.19Z"/><path class="cls-1" d="M49.32,154a4.11,4.11,0,1,1-4.1-4.1A4.11,4.11,0,0,1,49.32,154Z"/><path class="cls-1" d="M112.18,149.92a8.21,8.21,0,1,1-8.2-8.21A8.2,8.2,0,0,1,112.18,149.92Z"/><path class="cls-1" d="M126,148a4.56,4.56,0,1,1-4.55-4.55A4.56,4.56,0,0,1,126,148Z"/><path class="cls-1" d="M34,132.58a3.92,3.92,0,1,1-3.92-3.91A3.92,3.92,0,0,1,34,132.58Z"/><path class="cls-1" d="M23.64,126.45A6.61,6.61,0,1,1,17,119.84,6.6,6.6,0,0,1,23.64,126.45Z"/><path class="cls-1" d="M17,138.8a3.67,3.67,0,1,1-3.67-3.67A3.67,3.67,0,0,1,17,138.8Z"/><path class="cls-1" d="M150.67,114.69a3.52,3.52,0,1,1-3.52-3.52A3.53,3.53,0,0,1,150.67,114.69Z"/><rect class="cls-2" x="36.93" y="107.71" width="3.66" height="20.48"/><rect class="cls-2" x="106.02" y="107.71" width="3.66" height="20.48"/><rect class="cls-3" x="13.36" y="35.87" width="119.89" height="73.7"/><rect class="cls-4" x="19.09" y="40.81" width="108.43" height="63.82"/><path class="cls-5" d="M94.61,98.64H26.22S26.56,72.87,35,69.17s14,14.93,18,15.18,3.6-15.26,9.35-17.56c14.81-5.93,13.3,17.44,16,17.19s5.15-21.57,8.88-21.57C96.34,62.41,94.61,98.64,94.61,98.64Z"/><path class="cls-6" d="M94.61,98.64H26.22S28,76.66,36.34,73s12.1,14.07,16,14.32,7.66-12.34,13.83-12.84S76.59,89,79.3,88.76s4.17-24,7.9-24C94.61,64.81,94.61,98.64,94.61,98.64Z"/><path class="cls-7" d="M94.61,98.64H26.22s2.22-10.86,10.62-14.57,12.84,6.54,16.79,6.79,5.55-14.63,11.72-15.12,2.75,18,12.53,18c7.1,0,6-15.18,9.76-15.18C95,78.52,94.61,98.64,94.61,98.64Z"/><rect class="cls-5" x="102.57" y="61.26" width="20.28" height="3.55"/><rect class="cls-5" x="102.57" y="69.17" width="20.28" height="3.55"/><rect class="cls-6" x="102.57" y="77.07" width="20.28" height="3.55"/><rect class="cls-5" x="102.57" y="84.98" width="20.28" height="3.55"/><rect class="cls-7" x="102.57" y="92.89" width="20.28" height="3.55"/><rect class="cls-6" x="24.38" y="44.64" width="3.7" height="3.7"/><rect class="cls-5" x="31.65" y="44.64" width="16.79" height="3.7"/><rect class="cls-6" x="24.38" y="50.86" width="3.7" height="3.7"/><rect class="cls-5" x="31.65" y="50.86" width="16.79" height="3.7"/><rect class="cls-6" x="24.38" y="57.07" width="3.7" height="3.7"/><rect class="cls-5" x="31.65" y="57.07" width="16.79" height="3.7"/><rect class="cls-5" x="70.13" y="44.64" width="52.72" height="5.16"/><rect class="cls-5" x="55.74" y="55.62" width="26.45" height="4.36"/><rect class="cls-3" x="33.9" y="125.59" width="9.71" height="3.62"/><rect class="cls-3" x="103" y="125.59" width="9.71" height="3.62"/><path class="cls-6" d="M59.68,45.63c1.32.1,2.53.66,2.54,2l-2.21,0c0-.5-.53-.61-.85-.61s-.86,0-.85.41c0,.91,4.06-.06,4.07,2.51,0,1.53-1.19,2.11-2.66,2.23l.1,1.63H58.47l.08-1.65C57.18,52,55.9,51.39,55.89,50h2.2v0c0,.61.7.73,1,.73s1,0,1-.47c0-.95-4.06-.06-4.08-2.54,0-1.43,1.1-2,2.47-2.11L58.42,44h1.34Z"/><polygon class="cls-7" points="68.28 47.78 66.21 43.74 64.13 47.78 65.56 47.78 65.56 53.81 66.87 53.81 66.87 47.78 68.28 47.78"/><path class="cls-8" d="M125.76,69.48a11.22,11.22,0,0,0-3.58,4.44c-1.63,3.25-2.65,5-2.84,4.84-.87-.69-3.16-2.65-6.51-7.91-.41-.64,0-1,0-1.55s.68-1.66.53-2-.55-.25-.94.54-.26,1.28-.58,1.05a8.29,8.29,0,0,1-1.34-1.6c-.25-.41-1-1.21-1.25-1.08s-.25.34.94,2c-.43-.61-1.49-2-1.86-1.68s.77,1.51,1.24,2.07c-.4-.47-1.33-1.46-1.65-1.13s1.56,1.89,1.56,1.89-1.47-1.16-1.66-.82.65,1.1,1.5,1.57,1,.65,1.33.82a3.51,3.51,0,0,1,.77,1s6.16,13.2,8.37,12S125,78.44,125,78.44A10.29,10.29,0,0,0,126.1,75,13.35,13.35,0,0,0,125.76,69.48Z"/><path class="cls-7" d="M121,75.13c.45-1,3-6.26,4.86-7l2.46,1c1.09,1.36-.3,4.57-.75,4.93S125.34,78,125,78.44A32.74,32.74,0,0,1,121,75.13Z"/><path class="cls-9" d="M130.27,60.56l3.53.55a8.13,8.13,0,0,0,.53,5.83s-2.54,2.75-4.31,2a2.08,2.08,0,0,1-1.19-2.69S130.76,64.74,130.27,60.56Z"/><path class="cls-2" d="M137.34,126.6s1,3.78.41,4.4-8.47,2-9.23,1.34-.53-1.89,1.09-2.57,2.67-.36,3.74-1,.53-2.35.53-2.35Z"/><path class="cls-2" d="M127.49,126s.19,4.74-.44,5.27-8.67.65-9.33-.09-.28-1.79,1.35-2.15c1.47-.33,2.56,0,3.69-.52s1.49-2.65,1.49-2.65Z"/><path class="cls-6" d="M124.1,86.4l10.33-1.84s-3.91,21.28-4.43,23.73-2.06,18.63-2.06,18.63l-4.51-.53s.06-17.68.28-19.25S124.1,86.4,124.1,86.4Z"/><path class="cls-10" d="M127.91,94.87c-.51-3.34-.16-5.93-.9-7.56-.29-.64-1.25-.47-1.46-1.13a2.29,2.29,0,0,0,.32-.51l8.58-1.29s-3.89,18.34-4.9,22.84C129.55,107.22,128.32,97.53,127.91,94.87Z"/><path class="cls-6" d="M128.38,85.37l8.3,2.11a15.8,15.8,0,0,1,.5,6.88c-.68,4.62-.75,11.86-.83,12.84s1.55,16.59,1.68,20.32l-4.47.19s-3.43-19.54-3.63-20S128.38,85.37,128.38,85.37Z"/><path class="cls-7" d="M124.55,78.1c.17-3.5-.77-8.77,1.28-10L129,66.2a2.43,2.43,0,0,0,1.74,1.42c1.22.17,3.17-1.68,3.17-1.68s2.24,1.32,4.26,2.22c-.49,1.62.52,3.08.51,4.69a10,10,0,0,0,.35,2.63,20.48,20.48,0,0,0-1.79,4.71c-.44,3.19,1,8.08,1,8.08a54.92,54.92,0,0,1-7.68,1.17,24.53,24.53,0,0,1-7.59-.9A97.42,97.42,0,0,0,124.55,78.1Z"/><path class="cls-11" d="M139,75.48c-.06-.24-.1-.48-.15-.73s-.08-.35-.11-.54a9.81,9.81,0,0,1-.09-1.36c0-.79-.05-1.64-.06-2.48-.42.3-.93,1-1.43.74-2.38-1.4-2.71,5-2.71,8.19s-.08,7-1.35,9.86a51.17,51.17,0,0,0,5.1-.89s-.2-.68-.43-1.71c-.11-.52-.23-1.12-.34-1.76,0-.21-.07-.43-.1-.65-.09-.66-.16-1.35-.19-2a11.07,11.07,0,0,1,.07-1.93A20.48,20.48,0,0,1,139,75.48Z"/><path class="cls-8" d="M133.73,54.73s-5.06-.77-5.64-.2-.68,2.59-.65,4.32-.71,5,1.31,5.62,5.84-1.27,7.2-4.68C137.68,55.45,134.08,54.78,133.73,54.73Z"/><path class="cls-2" d="M134.59,54.33s-2.39.08-2.81,3.68c-.19,1.63-.6,2.88-.1,3a.85.85,0,0,0,1-.73c0-.46.14-2,1.1-1.57s.63,2.27-.58,2.8a1.51,1.51,0,0,0,.71,1.62,6.77,6.77,0,0,0,2.89-4.42C137.18,55.84,136.12,54.25,134.59,54.33Z"/><path class="cls-2" d="M135.55,54.65a3.49,3.49,0,0,0-3.24-2.45,6.65,6.65,0,0,0-6.07,3.56S127,57,129.71,57.2a10,10,0,0,0,4.19-.78A3,3,0,0,0,135.55,54.65Z"/><path class="cls-8" d="M142.41,83.91c-.17-.81-.93-5.6-1.2-7.38-1.55.51-3,1-4.58,1.47a44.26,44.26,0,0,1,1.7,6.56c.17,1.62-.56,8.77-.78,11.25h0c0,.2,0,.37-.05.51a3.32,3.32,0,0,1-.57,1.47c-.36.45-1.57,1.93-1.37,2.58s1.22-.54,1.59-.94.43.94.34,1.67-1.55,1.93-1.39,2.43c.1.35.55.1,1.12-.54-.27.39-.47.78-.32.88s.56-.11,1-.54c-.22.33-.35.62-.21.7s.62-.24,1-.66c-.2.3-.33.59-.19.68s1.11-.62,1.44-1.64c.26-.84-.36-3.18-.59-4.38a2.16,2.16,0,0,1,.07-1.07C140.07,94.88,142.87,86.18,142.41,83.91Z"/><path class="cls-7" d="M136.63,79.56a25.85,25.85,0,0,0,5.58-1.68c-.43-3-1.48-7.15-3-8.8-.43-.45-1.2-1.29-1.9-1-.92.31-2.11,1.57-2.2,4a27.75,27.75,0,0,0,.93,5.32C136.19,77.89,136.37,78.82,136.63,79.56Z"/></g></g></svg>