<svg xmlns="http://www.w3.org/2000/svg" viewBox="0 0 156.77 158.12"><defs><style>.cls-1{fill:#32cbcc;}.cls-2{fill:#110239;}.cls-3{fill:#fefefe;}.cls-4{fill:#e5e6ed;}.cls-5{fill:#b3eef6;}.cls-6{fill:#fd425f;}.cls-7{fill:#fff;}.cls-8{fill:#d0d1de;}.cls-9{fill:#f88667;}.cls-10{fill:#e45940;}.cls-11{fill:#01c7e2;}.cls-12{fill:#00a7cc;}</style></defs><title>iconRecurso 3</title><g id="Capa_2" data-name="Capa 2"><g id="Capa_1-2" data-name="Capa 1"><path class="cls-1" d="M147.15,80.59A70.08,70.08,0,1,1,77.08,10.52,70.08,70.08,0,0,1,147.15,80.59Z"/><path class="cls-1" d="M92.33,13.67a6.62,6.62,0,1,1-6.62-6.61A6.62,6.62,0,0,1,92.33,13.67Z"/><path class="cls-1" d="M99.24,19.11a3.17,3.17,0,1,1-3.17-3.17A3.17,3.17,0,0,1,99.24,19.11Z"/><path class="cls-1" d="M148.66,87.59a8.36,8.36,0,1,1-8.36-8.36A8.36,8.36,0,0,1,148.66,87.59Z"/><path class="cls-1" d="M156.77,70.66a5.91,5.91,0,1,1-5.91-5.91A5.91,5.91,0,0,1,156.77,70.66Z"/><path class="cls-1" d="M18.85,51.15a9.43,9.43,0,1,1-9.42-9.42A9.43,9.43,0,0,1,18.85,51.15Z"/><path class="cls-1" d="M73.2,145.93a8.09,8.09,0,1,1-8.09-8.09A8.09,8.09,0,0,1,73.2,145.93Z"/><path class="cls-1" d="M21,29.86a6,6,0,1,1-6-6A6,6,0,0,1,21,29.86Z"/><path class="cls-1" d="M62.76,4a4,4,0,1,1-4-4A4,4,0,0,1,62.76,4Z"/><path class="cls-1" d="M126.81,4.93a3,3,0,1,1-3-3A3,3,0,0,1,126.81,4.93Z"/><path class="cls-1" d="M37,13.67a3,3,0,1,1-3-3A3,3,0,0,1,37,13.67Z"/><path class="cls-1" d="M117.59,8.06a6.13,6.13,0,1,1-6.13-6.13A6.13,6.13,0,0,1,117.59,8.06Z"/><path class="cls-1" d="M57.28,21.19A8.89,8.89,0,1,1,48.4,12.3,8.88,8.88,0,0,1,57.28,21.19Z"/><path class="cls-1" d="M49.32,154a4.11,4.11,0,1,1-4.1-4.1A4.11,4.11,0,0,1,49.32,154Z"/><path class="cls-1" d="M112.18,149.92a8.21,8.21,0,1,1-8.2-8.21A8.2,8.2,0,0,1,112.18,149.92Z"/><path class="cls-1" d="M126,148a4.56,4.56,0,1,1-4.55-4.55A4.56,4.56,0,0,1,126,148Z"/><path class="cls-1" d="M34,132.58a3.92,3.92,0,1,1-3.92-3.91A3.92,3.92,0,0,1,34,132.58Z"/><path class="cls-1" d="M23.64,126.45A6.61,6.61,0,1,1,17,119.84,6.6,6.6,0,0,1,23.64,126.45Z"/><path class="cls-1" d="M17,138.8a3.67,3.67,0,1,1-3.67-3.67A3.67,3.67,0,0,1,17,138.8Z"/><path class="cls-1" d="M150.67,114.69a3.52,3.52,0,1,1-3.52-3.52A3.53,3.53,0,0,1,150.67,114.69Z"/><polygon class="cls-2" points="88.6 137.9 66.44 137.9 68.26 111.11 86.78 111.11 88.6 137.9"/><path class="cls-2" d="M91.5,133.61a1.45,1.45,0,0,0-1.2-.64H64.74a1.45,1.45,0,0,0-1.2.64l-3.35,5a1.46,1.46,0,0,0,1.2,2.27H93.65a1.46,1.46,0,0,0,1.2-2.27Z"/><path class="cls-2" d="M131.77,118.24H23.27A6.24,6.24,0,0,1,17,112V43.15a6.24,6.24,0,0,1,6.23-6.25h108.5A6.24,6.24,0,0,1,138,43.15V112A6.25,6.25,0,0,1,131.77,118.24Z"/><rect class="cls-3" x="22.6" y="42.29" width="109.83" height="69.72"/><rect class="cls-4" x="25.35" y="49.88" width="104.35" height="62.13"/><rect class="cls-5" x="25.35" y="49.88" width="104.35" height="5.14"/><rect class="cls-3" x="92.22" y="71.78" width="32.41" height="4.29"/><rect class="cls-3" x="92.22" y="79.37" width="32.41" height="4.29"/><rect class="cls-3" x="92.22" y="86.95" width="32.41" height="4.29"/><rect class="cls-3" x="34.97" y="60.18" width="32.41" height="4.29"/><rect class="cls-3" x="34.97" y="67.76" width="32.41" height="4.29"/><path class="cls-6" d="M65.87,69.09H4.69A3.89,3.89,0,0,0,.81,73V92.77a3.89,3.89,0,0,0,3.88,3.89H43l14.6,12.45L50.68,96.66H65.87a3.89,3.89,0,0,0,3.88-3.89V73A3.89,3.89,0,0,0,65.87,69.09Z"/><rect class="cls-7" x="23.86" y="74.42" width="41.23" height="2.38"/><rect class="cls-7" x="23.86" y="79.28" width="41.23" height="2.38"/><rect class="cls-7" x="23.86" y="84.14" width="41.23" height="2.38"/><rect class="cls-7" x="23.86" y="89" width="27.36" height="2.38"/><path class="cls-2" d="M20.6,82.45a8,8,0,1,1-8-8A8,8,0,0,1,20.6,82.45Z"/><ellipse class="cls-7" cx="12.64" cy="80.07" rx="2.24" ry="2.32"/><path class="cls-7" d="M12.68,82.75H12.6a4,4,0,0,0-4,4v2.55a7.73,7.73,0,0,0,8.05,0V86.74A4,4,0,0,0,12.68,82.75Z"/><path class="cls-8" d="M140.09,17.74H78.91A3.88,3.88,0,0,0,75,21.63V41.42a3.88,3.88,0,0,0,3.87,3.89H96.63L91.88,57.76l12.41-12.45h35.8A3.88,3.88,0,0,0,144,41.42V21.63A3.88,3.88,0,0,0,140.09,17.74Z"/><rect class="cls-7" x="98.09" y="23.07" width="41.23" height="2.38"/><rect class="cls-7" x="98.09" y="27.93" width="41.23" height="2.38"/><rect class="cls-7" x="98.09" y="32.79" width="41.23" height="2.38"/><rect class="cls-7" x="98.09" y="37.65" width="27.36" height="2.38"/><path class="cls-2" d="M94.82,31.1a8,8,0,1,1-7.95-8A8,8,0,0,1,94.82,31.1Z"/><path class="cls-7" d="M89.11,28.72a2.24,2.24,0,1,1-2.24-2.32A2.28,2.28,0,0,1,89.11,28.72Z"/><path class="cls-7" d="M86.91,31.4h-.08a4,4,0,0,0-4,4v2.55a7.69,7.69,0,0,0,8.06,0V35.39A4,4,0,0,0,86.91,31.4Z"/><path class="cls-9" d="M81.22,66.48a17.65,17.65,0,0,1-4.9.22,7,7,0,0,1-1.73-.38c.08,2.05.1,6.86-1.36,8.85,0,0,.53,2.36,4.78,2.43s4.73-3.15,4.73-3.15A42.39,42.39,0,0,1,81.22,66.48Z"/><path class="cls-10" d="M73.25,75.24l.07.17v0c0,.07.08.16.13.25h0a2.58,2.58,0,0,0,.22.31l0,0a3.52,3.52,0,0,0,.77.67l.06,0a5,5,0,0,0,.57.3l.09,0a5.48,5.48,0,0,0,.75.25,6,6,0,0,1,1.25-3A7.53,7.53,0,0,1,82,71.52a30,30,0,0,1-.78-5,17.65,17.65,0,0,1-4.9.22,7,7,0,0,1-1.73-.38c.08,2.05.1,6.86-1.36,8.85l0,0Z"/><path class="cls-9" d="M75.33,55s7-2.07,8.08-.38.91,4.43,1.37,5.64,2.19,2.47,2.38,2.95S86,64.6,85.81,65s-.89,4.33-2.1,5.21-7.69-1.45-9.3-4.52S73.46,56,75.33,55Z"/><path class="cls-2" d="M78.51,56.2a6.94,6.94,0,0,1-.74,3.61c-.42.84,1.67,3.06,1.09,4.07-.39.68-1,.51-1.47-.82a2,2,0,0,0-1.12-1c-1.71-.74-2.1,1.87-.57,2.64,1.07.55.43,3.26.43,3.26-1.15.89-4.95-.18-4.53-3,.26-1.77.38-2.45-.24-2.88-1.12-.78-2.58-2.95-.73-4.79,2.54-2.53.22-3.33,3.16-4.07S79.15,54.36,78.51,56.2Z"/><path class="cls-2" d="M73.31,54.71c.16-.64,1.32-1.47,1.89-1.9a8.48,8.48,0,0,1,3-1.36,7.73,7.73,0,0,1,3.35-.11c1,.18,1.75.61,2.73.72a3.18,3.18,0,0,0,2.43-.47,6.54,6.54,0,0,1,.12,2.21,7,7,0,0,1-1.26,2.43c-1.41,2.11-5.26,3.29-8,2.17-1.31-.54-2.48-1-3.13-2.15A7,7,0,0,0,73.31,54.71Z"/><path class="cls-2" d="M110.5,59.27l6.74,15s-2,2.22-2.63,1.73-10.76-12.66-11.75-13.3S110.5,59.27,110.5,59.27Z"/><path class="cls-6" d="M93.8,61.14s0,4.31,2.65,5.3c0,0,13.48-5.6,16.19-6.14s12.57-.62,12.57-.62l-9.94-17.8s-4.77,9.56-9.12,12.69S93.8,61.14,93.8,61.14Z"/><path class="cls-2" d="M102.54,64c1.06-.43,2.18-.87,3.27-1.29a13.79,13.79,0,0,1-2.84-6.1c-1,.59-2.08,1.15-3.1,1.68A12.39,12.39,0,0,0,102.54,64Z"/><path class="cls-11" d="M128.88,46.46c2.81,6.79,1.81,13.65-2.22,15.33s-9.57-2.47-12.37-9.26-1.82-13.65,2.21-15.33S126.07,39.67,128.88,46.46Z"/><path class="cls-2" d="M128.34,46.69c2.38,5.77,1.54,11.61-1.89,13s-8.14-2.1-10.53-7.88-1.54-11.61,1.89-13S126,40.91,128.34,46.69Z"/><path class="cls-9" d="M109.62,70.07c-.32-.19-.23-1.4-.17-1.72.11-.49.44-1.13.1-1.6-.6-.83-1.44,1.41-1.55,1.73a2.38,2.38,0,0,0-.16,1.49,6,6,0,0,0,1.29,2c-.06.22-.13.45-.21.7a13.68,13.68,0,0,1,1.62.82c.65.38.62.84,1.23,1.26l.6-1.4A29.09,29.09,0,0,0,109.62,70.07Z"/><path class="cls-9" d="M113.93,65.16c-.58-.63-1.48-.38-2.19.13-.51.38-2,1.58-1.6,2.45s2.24-.88,2.24-.88c-.7.61-2,1.09-1.68,1.7s2-.29,2.4-.56c-.38.1-2.24,1.23-1.49,1.82.51.41,1.87-.44,2.28-.73-.54.17-1.29.65-1.15,1.42.24.41,1.07.14,1.53-.05.7-.28,1.36-.39,1.41-1.26,0-.16,0-.3,0-.47a4.74,4.74,0,0,0-.62-1.89A8.08,8.08,0,0,0,113.93,65.16Z"/><path class="cls-9" d="M43,70.14a7.86,7.86,0,0,1-.78-1.66c-.17-.5-.29-1-.46-1.51a3.72,3.72,0,0,1-.34-1.47,4.63,4.63,0,0,1,.18-.9c.1-.38.24-.75.32-1.14s0-.68.1-1a6,6,0,0,1,.6-1.89,6.89,6.89,0,0,1,.86-1.2A5.38,5.38,0,0,1,44,58.8a1.41,1.41,0,0,0,.47-.58.56.56,0,0,0-.41-.74,2.05,2.05,0,0,0-1.91.62c-.5.71-.74,1.56-1.31,2.24-1.73,2.06-3.35-.37-5.37-1.24a12.15,12.15,0,0,1-1.94-1.26c-.36-.27-1.91-1.75-2.65-1.36-.53.28.52,1.52,1,1.82.2.12,1.93,1.53,2.15,1.6a11.11,11.11,0,0,1-2.89-1.8c-.77-.6-1.51-1.2-1.93-.85-1.28,1,3.76,3.46,4.15,3.69C33,61,29,58.17,28.65,59.2c-.2.57.62,1.13,1.29,1.49.84.46,2.24.79,2.56,1-.59.21-3.2-1.57-3.2-.49,0,.71,1.62,1.25,2.23,1.43s2.47,1.45,3.06,1.73c1.94.93,2.75.83,3.52,2,.49.74,1.36,4.68,2.06,6.18Z"/><path class="cls-11" d="M108.53,72.09c-1.73,5.07-5.45,14-6.68,13.42-2.3-1.18-7.25-5.25-10.95-7.73a26.42,26.42,0,0,0-4.3-2.49l2.58,12.25s12.2,9.3,14.76,7.88c2-1.13,7-15.27,8.71-21.12Z"/><path class="cls-12" d="M96.44,89.56a82.53,82.53,0,0,0-8-8l.41,5.81s12.3,9.28,15,8.12C101.49,93.93,98.12,91.74,96.44,89.56Z"/><path class="cls-11" d="M65.89,75.94s-15,6.08-16.65,5.65-7.07-16-7.07-16l-4.55,1.85s4.85,22.4,8,23.44,21.76-4.35,21.76-4.35A31.94,31.94,0,0,0,65.89,75.94Z"/><path class="cls-12" d="M53.08,89.54c-1.32.47-2.67.94-4,1.34,6.37-.84,18.3-4.3,18.3-4.3A32.52,32.52,0,0,0,67,80.89C63.34,84.9,58.08,87.74,53.08,89.54Z"/><path class="cls-8" d="M121.22,50.82a3.81,3.81,0,0,0-4.61-2.75,3.16,3.16,0,0,0-1.55,1.13,18.09,18.09,0,0,0,3.18,6.7,2.8,2.8,0,0,0,.85-.14A3.81,3.81,0,0,0,121.22,50.82Z"/><path class="cls-11" d="M65.91,94.26c-.53,5.23-.94,16.21-1.25,17.74H89.29a229.62,229.62,0,0,0-.11-24.46A47.53,47.53,0,0,0,86.6,75.29s-1.84-.58-4-1.42c0,0-4.53,2.78-8.76,0,0,0-7.62,1.81-8.54,2.25C64.52,76.52,66.48,88.68,65.91,94.26Z"/><path class="cls-12" d="M72.43,101.41A19.81,19.81,0,0,0,71,94.28a6.28,6.28,0,0,1-.45-1.59,10.64,10.64,0,0,0-1-3.65c-.55-.84-1.11-1.67-1.65-2.51-.3-.41-.62-.84-1-1.36a23,23,0,0,1-1.5-2.67c.28,3.84.8,9,.51,11.76-.53,5.23-.94,16.21-1.25,17.74H76.12a21.32,21.32,0,0,1-3.22-7A12.77,12.77,0,0,1,72.43,101.41Z"/></g></g></svg>