<?xml version="1.0" encoding="utf-8"?>
<!-- Generator: Adobe Illustrator 24.0.0, SVG Export Plug-In . SVG Version: 6.00 Build 0)  -->
<svg version="1.1" id="Capa_1" xmlns="http://www.w3.org/2000/svg" xmlns:xlink="http://www.w3.org/1999/xlink" x="0px" y="0px"
	 viewBox="0 0 156.8 158.1" style="enable-background:new 0 0 156.8 158.1;" xml:space="preserve">
<style type="text/css">
	.st0{display:none;fill:#32CBCC;}
	.st1{fill:#110239;}
	.st2{fill:#FEFEFE;}
	.st3{fill:#E5E6ED;}
	.st4{fill:#B3EEF6;}
	.st5{fill:#FD425F;}
	.st6{fill:#FFFFFF;}
	.st7{fill:#D0D1DE;}
	.st8{fill:#F88667;}
	.st9{fill:#E45940;}
	.st10{fill:#01C7E2;}
	.st11{fill:#00A7CC;}
</style>
<title>iconRecurso 3</title>
<g id="Capa_2_1_">
	<g id="Capa_1-2">
		<path class="st0" d="M147.1,80.6c0,38.7-31.4,70.1-70.1,70.1C38.4,150.7,7,119.3,7,80.6c0-38.7,31.4-70.1,70.1-70.1c0,0,0,0,0,0
			C115.8,10.5,147.1,41.9,147.1,80.6z"/>
		<path class="st0" d="M92.3,13.7c0,3.7-3,6.6-6.6,6.6c-3.7,0-6.6-3-6.6-6.6s3-6.6,6.6-6.6c0,0,0,0,0,0C89.4,7.1,92.3,10,92.3,13.7z
			"/>
		<path class="st0" d="M99.2,19.1c0,1.8-1.4,3.2-3.2,3.2c-1.8,0-3.2-1.4-3.2-3.2s1.4-3.2,3.2-3.2l0,0C97.8,15.9,99.2,17.4,99.2,19.1
			z"/>
		<path class="st0" d="M148.7,87.6c0,4.6-3.7,8.4-8.4,8.4s-8.4-3.7-8.4-8.4c0-4.6,3.7-8.4,8.4-8.4S148.7,83,148.7,87.6L148.7,87.6z"
			/>
		<path class="st0" d="M156.8,70.7c0,3.3-2.6,5.9-5.9,5.9s-5.9-2.6-5.9-5.9c0-3.3,2.6-5.9,5.9-5.9C154.1,64.8,156.8,67.4,156.8,70.7
			L156.8,70.7z"/>
		<path class="st0" d="M18.9,51.2c0,5.2-4.2,9.4-9.4,9.4c-5.2,0-9.4-4.2-9.4-9.4s4.2-9.4,9.4-9.4c0,0,0,0,0,0
			C14.6,41.7,18.8,45.9,18.9,51.2z"/>
		<path class="st0" d="M73.2,145.9c0,4.5-3.6,8.1-8.1,8.1c-4.5,0-8.1-3.6-8.1-8.1c0-4.5,3.6-8.1,8.1-8.1h0
			C69.6,137.8,73.2,141.5,73.2,145.9z"/>
		<path class="st0" d="M21,29.9c0,3.3-2.7,6-6,6s-6-2.7-6-6s2.7-6,6-6S21,26.5,21,29.9z"/>
		<path class="st0" d="M62.8,4c0,2.2-1.8,4-4,4s-4-1.8-4-4s1.8-4,4-4S62.8,1.8,62.8,4z"/>
		<path class="st0" d="M126.8,4.9c0,1.7-1.3,3-3,3s-3-1.3-3-3s1.3-3,3-3S126.8,3.3,126.8,4.9z"/>
		<path class="st0" d="M37,13.7c0,1.7-1.3,3-3,3s-3-1.3-3-3s1.3-3,3-3S37,12,37,13.7z"/>
		<path class="st0" d="M117.6,8.1c0,3.4-2.7,6.1-6.1,6.1s-6.1-2.7-6.1-6.1s2.7-6.1,6.1-6.1c0,0,0,0,0,0
			C114.8,1.9,117.6,4.7,117.6,8.1z"/>
		<path class="st0" d="M57.3,21.2c0,4.9-4,8.9-8.9,8.9c-4.9,0-8.9-4-8.9-8.9c0-4.9,4-8.9,8.9-8.9c0,0,0,0,0,0
			C53.3,12.3,57.3,16.3,57.3,21.2C57.3,21.2,57.3,21.2,57.3,21.2z"/>
		<path class="st0" d="M49.3,154c0,2.3-1.8,4.1-4.1,4.1c-2.3,0-4.1-1.8-4.1-4.1c0-2.3,1.8-4.1,4.1-4.1c0,0,0,0,0,0
			C47.5,149.9,49.3,151.7,49.3,154z"/>
		<path class="st0" d="M112.2,149.9c0,4.5-3.7,8.2-8.2,8.2c-4.5,0-8.2-3.7-8.2-8.2s3.7-8.2,8.2-8.2c0,0,0,0,0,0
			C108.5,141.7,112.2,145.4,112.2,149.9C112.2,149.9,112.2,149.9,112.2,149.9z"/>
		<path class="st0" d="M126,148c0,2.5-2,4.6-4.6,4.6c-2.5,0-4.6-2-4.6-4.6s2-4.6,4.6-4.6c0,0,0,0,0,0C124,143.5,126,145.5,126,148z"
			/>
		<path class="st0" d="M34,132.6c0,2.2-1.7,3.9-3.9,3.9c-2.2,0-3.9-1.7-3.9-3.9c0-2.2,1.7-3.9,3.9-3.9c0,0,0,0,0,0
			C32.2,128.7,34,130.4,34,132.6z"/>
		<path class="st0" d="M23.6,126.4c0,3.7-3,6.6-6.6,6.6c-3.7,0-6.6-3-6.6-6.6c0-3.6,2.9-6.6,6.6-6.6
			C20.6,119.8,23.6,122.8,23.6,126.4C23.6,126.4,23.6,126.4,23.6,126.4z"/>
		<path class="st0" d="M17,138.8c0,2-1.6,3.7-3.7,3.7s-3.7-1.6-3.7-3.7s1.6-3.7,3.7-3.7c0,0,0,0,0,0C15.4,135.1,17,136.8,17,138.8z"
			/>
		<path class="st0" d="M150.7,114.7c0,1.9-1.6,3.5-3.5,3.5c-1.9,0-3.5-1.6-3.5-3.5c0-1.9,1.6-3.5,3.5-3.5
			C149.1,111.2,150.7,112.7,150.7,114.7z"/>
		<polygon class="st1" points="88.6,137.9 66.4,137.9 68.3,111.1 86.8,111.1 		"/>
		<path class="st1" d="M91.5,133.6c-0.3-0.4-0.7-0.6-1.2-0.6H64.7c-0.5,0-0.9,0.2-1.2,0.6l-3.3,5c-0.4,0.7-0.3,1.6,0.4,2
			c0.2,0.2,0.5,0.2,0.8,0.2h32.3c0.8,0,1.5-0.7,1.4-1.5c0-0.3-0.1-0.6-0.2-0.8L91.5,133.6z"/>
		<path class="st1" d="M131.8,118.2H23.3c-3.4,0-6.3-2.8-6.3-6.2c0,0,0,0,0,0V43.2c0-3.4,2.8-6.2,6.2-6.3c0,0,0,0,0,0h108.5
			c3.4,0,6.3,2.8,6.3,6.2c0,0,0,0,0,0V112C138,115.4,135.2,118.2,131.8,118.2z"/>
		<rect x="22.6" y="42.3" class="st2" width="109.8" height="69.7"/>
		<rect x="25.4" y="49.9" class="st3" width="104.3" height="62.1"/>
		<rect x="25.4" y="49.9" class="st4" width="104.3" height="5.1"/>
		<rect x="92.2" y="71.8" class="st2" width="32.4" height="4.3"/>
		<rect x="92.2" y="79.4" class="st2" width="32.4" height="4.3"/>
		<rect x="92.2" y="86.9" class="st2" width="32.4" height="4.3"/>
		<rect x="35" y="60.2" class="st2" width="32.4" height="4.3"/>
		<rect x="35" y="67.8" class="st2" width="32.4" height="4.3"/>
		<path class="st5" d="M65.9,69.1H4.7c-2.1,0-3.9,1.8-3.9,3.9c0,0,0,0,0,0v19.8c0,2.1,1.7,3.9,3.9,3.9H43l14.6,12.4l-6.9-12.4h15.2
			c2.1,0,3.9-1.7,3.9-3.9V73C69.8,70.9,68,69.1,65.9,69.1C65.9,69.1,65.9,69.1,65.9,69.1z"/>
		<rect x="23.9" y="74.4" class="st6" width="41.2" height="2.4"/>
		<rect x="23.9" y="79.3" class="st6" width="41.2" height="2.4"/>
		<rect x="23.9" y="84.1" class="st6" width="41.2" height="2.4"/>
		<rect x="23.9" y="89" class="st6" width="27.4" height="2.4"/>
		<path class="st1" d="M20.6,82.4c0,4.4-3.6,8-8,8s-8-3.6-8-8s3.6-8,8-8S20.6,78,20.6,82.4z"/>
		<ellipse class="st6" cx="12.6" cy="80.1" rx="2.2" ry="2.3"/>
		<path class="st6" d="M12.7,82.8L12.7,82.8c-2.3,0-4.1,1.8-4.1,4v2.6c2.5,1.5,5.6,1.5,8.1,0v-2.6C16.6,84.5,14.9,82.8,12.7,82.8z"
			/>
		<path class="st7" d="M140.1,17.7H78.9c-2.1,0-3.9,1.7-3.9,3.8c0,0,0,0,0,0v19.8c0,2.1,1.7,3.9,3.9,3.9c0,0,0,0,0,0h17.8l-4.8,12.5
			l12.4-12.5h35.8c2.1,0,3.9-1.7,3.9-3.8c0,0,0,0,0,0V21.6C144,19.5,142.3,17.7,140.1,17.7C140.1,17.7,140.1,17.7,140.1,17.7z"/>
		<rect x="98.1" y="23.1" class="st6" width="41.2" height="2.4"/>
		<rect x="98.1" y="27.9" class="st6" width="41.2" height="2.4"/>
		<rect x="98.1" y="32.8" class="st6" width="41.2" height="2.4"/>
		<rect x="98.1" y="37.7" class="st6" width="27.4" height="2.4"/>
		<path class="st1" d="M94.8,31.1c0,4.4-3.6,8-8,8c-4.4,0-8-3.6-8-8s3.6-8,8-8c0,0,0,0,0,0C91.3,23.1,94.8,26.7,94.8,31.1z"/>
		<path class="st6" d="M89.1,28.7c0,1.2-1.1,2.2-2.3,2.2c-1.2,0-2.2-1.1-2.2-2.3c0-1.2,1-2.2,2.2-2.2C88.1,26.4,89.1,27.5,89.1,28.7
			C89.1,28.7,89.1,28.7,89.1,28.7z"/>
		<path class="st6" d="M86.9,31.4L86.9,31.4c-2.3,0-4.1,1.8-4.1,4c0,0,0,0,0,0V38c2.5,1.5,5.6,1.5,8.1,0v-2.6
			C90.9,33.2,89.1,31.4,86.9,31.4z"/>
		<path class="st8" d="M81.2,66.5c-1.6,0.3-3.3,0.4-4.9,0.2c-0.6-0.1-1.2-0.2-1.7-0.4c0.1,2.1,0.1,6.9-1.4,8.8c0,0,0.5,2.4,4.8,2.4
			s4.7-3.2,4.7-3.2C82,71.8,81.5,69.2,81.2,66.5z"/>
		<path class="st9" d="M73.3,75.2l0.1,0.2l0,0c0,0.1,0.1,0.2,0.1,0.3l0,0c0.1,0.1,0.1,0.2,0.2,0.3l0,0c0.2,0.3,0.5,0.5,0.8,0.7h0.1
			c0.2,0.1,0.4,0.2,0.6,0.3h0.1c0.2,0.1,0.5,0.2,0.8,0.3c0.1-1.1,0.6-2.1,1.3-3c1.2-1.5,2.9-2.4,4.8-2.7c-0.4-1.6-0.7-3.3-0.8-5
			c-1.6,0.3-3.3,0.4-4.9,0.2c-0.6-0.1-1.2-0.2-1.7-0.4C74.7,68.4,74.7,73.2,73.3,75.2L73.3,75.2L73.3,75.2z"/>
		<path class="st8" d="M75.3,55c0,0,7-2.1,8.1-0.4s0.9,4.4,1.4,5.6s2.2,2.5,2.4,3S86,64.6,85.8,65s-0.9,4.3-2.1,5.2
			s-7.7-1.4-9.3-4.5S73.5,56,75.3,55z"/>
		<path class="st1" d="M78.5,56.2c0.1,1.2-0.2,2.5-0.7,3.6c-0.4,0.8,1.7,3.1,1.1,4.1c-0.4,0.7-1,0.5-1.5-0.8c-0.2-0.5-0.6-0.8-1.1-1
			c-1.7-0.7-2.1,1.9-0.6,2.6c1.1,0.6,0.4,3.3,0.4,3.3c-1.2,0.9-4.9-0.2-4.5-3c0.3-1.8,0.4-2.5-0.2-2.9c-1.1-0.8-2.6-3-0.7-4.8
			c2.5-2.5,0.2-3.3,3.2-4.1S79.2,54.4,78.5,56.2z"/>
		<path class="st1" d="M73.3,54.7c0.2-0.6,1.3-1.5,1.9-1.9c0.9-0.6,1.9-1.1,3-1.4c1.1-0.3,2.2-0.3,3.3-0.1c1,0.2,1.8,0.6,2.7,0.7
			c0.8,0.2,1.7,0,2.4-0.5c0.2,0.7,0.2,1.5,0.1,2.2c-0.3,0.9-0.7,1.7-1.3,2.4c-1.4,2.1-5.3,3.3-8,2.2c-1.3-0.5-2.5-1-3.1-2.2
			C74.1,55.7,73.8,55.2,73.3,54.7z"/>
		<path class="st1" d="M110.5,59.3l6.7,15c0,0-2,2.2-2.6,1.7s-10.8-12.7-11.8-13.3S110.5,59.3,110.5,59.3z"/>
		<path class="st5" d="M93.8,61.1c0,0,0,4.3,2.7,5.3c0,0,13.5-5.6,16.2-6.1s12.6-0.6,12.6-0.6l-9.9-17.8c0,0-4.8,9.6-9.1,12.7
			S93.8,61.1,93.8,61.1z"/>
		<path class="st1" d="M102.5,64c1.1-0.4,2.2-0.9,3.3-1.3c-1.4-1.8-2.4-3.9-2.8-6.1c-1,0.6-2.1,1.2-3.1,1.7
			C100.3,60.4,101.2,62.4,102.5,64z"/>
		<path class="st10" d="M128.9,46.5c2.8,6.8,1.8,13.7-2.2,15.3s-9.6-2.5-12.4-9.3s-1.8-13.7,2.2-15.3S126.1,39.7,128.9,46.5z"/>
		<path class="st1" d="M128.3,46.7c2.4,5.8,1.5,11.6-1.9,13s-8.1-2.1-10.5-7.9s-1.5-11.6,1.9-13S126,40.9,128.3,46.7z"/>
		<path class="st8" d="M109.6,70.1c-0.3-0.2-0.2-1.4-0.2-1.7c0.1-0.5,0.4-1.1,0.1-1.6c-0.6-0.8-1.4,1.4-1.6,1.7
			c-0.2,0.5-0.3,1-0.2,1.5c0.3,0.7,0.7,1.4,1.3,2c-0.1,0.2-0.1,0.4-0.2,0.7c0.6,0.2,1.1,0.5,1.6,0.8c0.7,0.4,0.6,0.8,1.2,1.3
			l0.6-1.4C111.5,72.2,110.6,71.1,109.6,70.1z"/>
		<path class="st8" d="M113.9,65.2c-0.6-0.6-1.5-0.4-2.2,0.1c-0.5,0.4-2,1.6-1.6,2.4s2.2-0.9,2.2-0.9c-0.7,0.6-2,1.1-1.7,1.7
			s2-0.3,2.4-0.6c-0.4,0.1-2.2,1.2-1.5,1.8c0.5,0.4,1.9-0.4,2.3-0.7c-0.5,0.2-1.3,0.7-1.2,1.4c0.2,0.4,1.1,0.1,1.5-0.1
			c0.7-0.3,1.4-0.4,1.4-1.3c0-0.2,0-0.3,0-0.5c-0.1-0.7-0.3-1.3-0.6-1.9C114.8,66.2,114.4,65.7,113.9,65.2z"/>
		<path class="st8" d="M43,70.1c-0.3-0.5-0.6-1.1-0.8-1.7c-0.2-0.5-0.3-1-0.5-1.5c-0.2-0.5-0.3-1-0.3-1.5c0-0.3,0.1-0.6,0.2-0.9
			c0.1-0.4,0.2-0.8,0.3-1.1s0-0.7,0.1-1c0.1-0.7,0.3-1.3,0.6-1.9c0.2-0.4,0.5-0.8,0.9-1.2c0.2-0.2,0.3-0.4,0.5-0.6
			c0.2-0.1,0.4-0.3,0.5-0.6c0.1-0.3,0-0.6-0.3-0.7c0,0-0.1,0-0.1,0c-0.7-0.1-1.4,0.1-1.9,0.6c-0.5,0.7-0.7,1.6-1.3,2.2
			c-1.7,2.1-3.3-0.4-5.4-1.2c-0.7-0.4-1.3-0.8-1.9-1.3c-0.4-0.3-1.9-1.8-2.6-1.4c-0.5,0.3,0.5,1.5,1,1.8c0.2,0.1,1.9,1.5,2.1,1.6
			c-1.1-0.4-2-1.1-2.9-1.8c-0.8-0.6-1.5-1.2-1.9-0.8c-1.3,1,3.8,3.5,4.2,3.7C33,61,29,58.2,28.6,59.2c-0.2,0.6,0.6,1.1,1.3,1.5
			c0.8,0.5,2.2,0.8,2.6,1c-0.6,0.2-3.2-1.6-3.2-0.5c0,0.7,1.6,1.3,2.2,1.4c0.6,0.2,2.5,1.5,3.1,1.7c1.9,0.9,2.8,0.8,3.5,2
			c0.5,0.7,1.4,4.7,2.1,6.2L43,70.1z"/>
		<path class="st10" d="M108.5,72.1c-1.7,5.1-5.4,14-6.7,13.4c-2.3-1.2-7.3-5.3-10.9-7.7c-1.4-1-2.8-1.8-4.3-2.5l2.6,12.3
			c0,0,12.2,9.3,14.8,7.9c2-1.1,7-15.3,8.7-21.1L108.5,72.1z"/>
		<path class="st11" d="M96.4,89.6c-2.5-2.8-5.2-5.5-8-8l0.4,5.8c0,0,12.3,9.3,15,8.1C101.5,93.9,98.1,91.7,96.4,89.6z"/>
		<path class="st10" d="M65.9,75.9c0,0-15,6.1-16.7,5.7s-7.1-16-7.1-16l-4.5,1.8c0,0,4.8,22.4,8,23.4s21.8-4.3,21.8-4.3
			C67.5,82.9,67,79.4,65.9,75.9z"/>
		<path class="st11" d="M53.1,89.5c-1.3,0.5-2.7,0.9-4,1.3c6.4-0.8,18.3-4.3,18.3-4.3c0-1.9-0.1-3.8-0.4-5.7
			C63.3,84.9,58.1,87.7,53.1,89.5z"/>
		<path class="st7" d="M121.2,50.8c-0.5-2-2.6-3.3-4.6-2.8c-0.6,0.2-1.2,0.6-1.6,1.1c0.6,2.4,1.7,4.7,3.2,6.7c0.3,0,0.6,0,0.8-0.1
			C121,55,122,52.8,121.2,50.8z"/>
		<path class="st10" d="M65.9,94.3c-0.5,5.2-0.9,16.2-1.3,17.7h24.6c0.4-8.1,0.4-16.3-0.1-24.5c-0.3-4.2-1.2-8.3-2.6-12.3
			c0,0-1.8-0.6-4-1.4c0,0-4.5,2.8-8.8,0c0,0-7.6,1.8-8.5,2.3C64.5,76.5,66.5,88.7,65.9,94.3z"/>
		<path class="st11" d="M72.4,101.4c0-2.4-0.5-4.9-1.4-7.1c-0.2-0.5-0.4-1-0.4-1.6c-0.1-1.3-0.5-2.5-1-3.7c-0.6-0.8-1.1-1.7-1.7-2.5
			c-0.3-0.4-0.6-0.8-1-1.4c-0.6-0.9-1.1-1.7-1.5-2.7c0.3,3.8,0.8,9,0.5,11.8c-0.5,5.2-0.9,16.2-1.3,17.7h11.5
			c-1.5-2.1-2.6-4.5-3.2-7C72.6,103.8,72.4,102.6,72.4,101.4z"/>
	</g>
</g>
</svg>
