<svg xmlns="http://www.w3.org/2000/svg" viewBox="0 0 156.77 158.12"><defs><style>.cls-1{isolation:isolate;}.cls-2{fill:#32cbcc;}.cls-3{fill:#110239;}.cls-4{fill:#fd425f;}.cls-5{fill:#616161;}.cls-6{fill:#00bad1;}.cls-7{fill:#00547a;opacity:0.32;mix-blend-mode:multiply;}.cls-8{fill:#e45940;}.cls-9{fill:#f88667;}.cls-10{fill:#d0d1de;}.cls-11{fill:#b8b9cd;}.cls-12{fill:#fff;}.cls-13{fill:#01c7e2;}.cls-14{fill:#e5e6ed;}</style></defs><title>iconRecurso 2</title><g class="cls-1"><g id="Capa_2" data-name="Capa 2"><g id="Capa_1-2" data-name="Capa 1"><path class="cls-2" d="M147.15,80.59A70.08,70.08,0,1,1,77.08,10.52,70.08,70.08,0,0,1,147.15,80.59Z"/><path class="cls-2" d="M92.33,13.67a6.62,6.62,0,1,1-6.62-6.61A6.62,6.62,0,0,1,92.33,13.67Z"/><path class="cls-2" d="M99.24,19.11a3.17,3.17,0,1,1-3.17-3.17A3.17,3.17,0,0,1,99.24,19.11Z"/><path class="cls-2" d="M148.66,87.59a8.36,8.36,0,1,1-8.36-8.36A8.36,8.36,0,0,1,148.66,87.59Z"/><path class="cls-2" d="M156.77,70.66a5.91,5.91,0,1,1-5.91-5.91A5.91,5.91,0,0,1,156.77,70.66Z"/><path class="cls-2" d="M18.85,51.15a9.43,9.43,0,1,1-9.42-9.42A9.43,9.43,0,0,1,18.85,51.15Z"/><path class="cls-2" d="M73.2,145.93a8.09,8.09,0,1,1-8.09-8.09A8.09,8.09,0,0,1,73.2,145.93Z"/><path class="cls-2" d="M21,29.86a6,6,0,1,1-6-6A6,6,0,0,1,21,29.86Z"/><path class="cls-2" d="M62.76,4a4,4,0,1,1-4-4A4,4,0,0,1,62.76,4Z"/><path class="cls-2" d="M126.81,4.93a3,3,0,1,1-3-3A3,3,0,0,1,126.81,4.93Z"/><path class="cls-2" d="M37,13.67a3,3,0,1,1-3-3A3,3,0,0,1,37,13.67Z"/><path class="cls-2" d="M117.59,8.06a6.13,6.13,0,1,1-6.13-6.13A6.13,6.13,0,0,1,117.59,8.06Z"/><path class="cls-2" d="M57.28,21.19A8.89,8.89,0,1,1,48.4,12.3,8.88,8.88,0,0,1,57.28,21.19Z"/><path class="cls-2" d="M49.32,154a4.11,4.11,0,1,1-4.1-4.1A4.11,4.11,0,0,1,49.32,154Z"/><path class="cls-2" d="M112.18,149.92a8.21,8.21,0,1,1-8.2-8.21A8.2,8.2,0,0,1,112.18,149.92Z"/><path class="cls-2" d="M126,148a4.56,4.56,0,1,1-4.55-4.55A4.56,4.56,0,0,1,126,148Z"/><path class="cls-2" d="M34,132.58a3.92,3.92,0,1,1-3.92-3.91A3.92,3.92,0,0,1,34,132.58Z"/><path class="cls-2" d="M23.64,126.45A6.61,6.61,0,1,1,17,119.84,6.6,6.6,0,0,1,23.64,126.45Z"/><path class="cls-2" d="M17,138.8a3.67,3.67,0,1,1-3.67-3.67A3.67,3.67,0,0,1,17,138.8Z"/><path class="cls-2" d="M150.67,114.69a3.52,3.52,0,1,1-3.52-3.52A3.53,3.53,0,0,1,150.67,114.69Z"/><polygon class="cls-3" points="87.9 136.9 66.04 136.9 67.84 110.55 86.1 110.55 87.9 136.9"/><path class="cls-3" d="M90.76,132.68a1.43,1.43,0,0,0-1.18-.63H64.37a1.43,1.43,0,0,0-1.19.63l-3.3,4.93a1.42,1.42,0,0,0,1.18,2.22H92.88a1.43,1.43,0,0,0,1.19-2.22Z"/><rect class="cls-3" x="17.3" y="37.56" width="119.33" height="79.99" rx="6.15"/><rect class="cls-4" x="22.8" y="42.86" width="108.35" height="68.57"/><path class="cls-5" d="M117,131.78c-12.59-2.33-27.27-5.1-27.31-.22,0,4.6,5.55,8.18,10.36,10.46,2.62-1,5.56-1.19,8.35-1.62,4.93-.76,9.77,0,14.71,0a19.73,19.73,0,0,0,7.86-5.83S126.69,133.58,117,131.78Z"/><path class="cls-6" d="M106.39,140.52c.4.2-4.42,2.48-4,2.67,2.06.65,22.34.76,24.2.28,3.21-.82-6-4.81-2.76-5.48,5.27-3.73,8.24-8.61,5.38-9.21-3.22-.69-8.25,1-11.5,1.35-2.48.25-3.92.42-6.27-.4l-7.92-.87c-8.12,1.61-9.8,4.53-9.88,4.5,0,1.15,5.92,3.54,11.23,6.35A6.06,6.06,0,0,1,106.39,140.52Z"/><path class="cls-7" d="M106.39,140.52c.4.2-4.42,2.48-4,2.67,2.06.65,22.34.76,24.2.28,3.21-.82-6-4.81-2.76-5.48,5.27-3.73,8.24-8.61,5.38-9.21-3.22-.69-8.25,1-11.5,1.35-2.48.25-3.92.42-6.27-.4l-7.92-.87c-8.12,1.61-9.8,4.53-9.88,4.5,0,1.15,5.92,3.54,11.23,6.35A6.06,6.06,0,0,1,106.39,140.52Z"/><path d="M103.36,137.4l2.57,3.49s-2.79,2-3.57,2.3-7.1.6-8.76-.67c-1.48-1.14-2-2.63-1.23-3.33,1-.9,3.31-1.19,4.48-1.34C99.41,137.51,103.36,137.4,103.36,137.4Z"/><path class="cls-6" d="M101.8,137.53l1.48,5.26s24.94-.37,27.55-4.2c3.35-3.46,4.7-10.25-2-10.38a14.51,14.51,0,0,0-4.35.87C115.29,132.16,101.8,137.53,101.8,137.53Z"/><path class="cls-7" d="M129.36,137.17a8,8,0,0,1-4.13-1.55,17.75,17.75,0,0,0-5.17-2,44.91,44.91,0,0,1-4.49-1.35c-7.25,2.36-13.77,5.29-13.77,5.29l1.16,4.12c.64.15,1.28.32,1.92.49a13.3,13.3,0,0,1,2.26.36l.47.1c7.17-.4,21.61-1.51,23.52-4.32a15.44,15.44,0,0,0,1.17-1.73A13.56,13.56,0,0,1,129.36,137.17Z"/><path d="M123.27,137.72l-2.16,2.74s3.53,2.15,4.26,2.5,5.84.59,7.45-.57c1.45-1,2-2.45,1.28-3.14-.89-.89-3.12-1.23-4.23-1.41A37.77,37.77,0,0,0,123.27,137.72Z"/><path class="cls-6" d="M125.78,137l-2.22,6.14s-30.63-2.41-33.12-6.69c-1.49-2.55-1.71-6.53,1.5-8,2-.87,4.77-1.32,8.74.05C110.55,132,125.78,137,125.78,137Z"/><path class="cls-8" d="M113.74,96.31H109.4s-.62,5.9-1.75,6.61c0,0-1.4,7,3.92,7,6.44,0,3.92-7,3.92-7C114.36,102.21,113.74,96.31,113.74,96.31Z"/><path class="cls-9" d="M117.21,97.46c-.6-.69-1.32.36-1.32.36s1-3.9,0-5.62-4.21-.81-4.21-.81-3.22-.9-4.21.81,0,5.62,0,5.62-.72-1-1.32-.36,1,2.44,1.35,2.65c0,0,2.32,4.32,4.18,4.32s4.18-4.32,4.18-4.32C116.22,99.9,117.81,98.15,117.21,97.46Z"/><path class="cls-3" d="M110.87,92.94s-2.43.43-2.7,1.73a5.12,5.12,0,0,0,.13,2,12.67,12.67,0,0,1,.2,2.16.38.38,0,0,1-.31-.06,4.33,4.33,0,0,1-.82-1c-.47-.68-1.13-.56-1.32-.14,0,0-.54-6.41,2.14-6.63S110.87,92.94,110.87,92.94Z"/><path class="cls-3" d="M112.46,92.94s2.43.43,2.7,1.73a5.12,5.12,0,0,1-.13,2,12.83,12.83,0,0,0-.21,2.16.4.4,0,0,0,.32-.06,4.33,4.33,0,0,0,.82-1c.46-.68,1.13-.56,1.32-.14,0,0,.54-6.41-2.14-6.63S112.46,92.94,112.46,92.94Z"/><path class="cls-3" d="M116,91.34a2,2,0,0,0-1.14-1.71,6.47,6.47,0,0,0-5.48,0c-1.9.94-2.47,1.16-3,.84s-.21-.63-.21-.63-1.24,0-1.18,1.91,2.43,4.31,5.52,4.31C115.24,96.06,116.76,92.77,116,91.34Z"/><path class="cls-10" d="M115.49,102.92c-.22,5.93-3.92,5.32-3.92,5.32s-3.7.61-3.92-5.32c0,0-5.91,1.63-8.79,3.56a56.8,56.8,0,0,1,1.31,10.93l3.37,13.07,8-1.46,8,1.46L123,117.41a57.27,57.27,0,0,1,1.3-10.93C121.4,104.55,115.49,102.92,115.49,102.92Z"/><path class="cls-11" d="M122.39,109.91c-3.67,2-5.45,6.45-9,8.65s-6.29-2.32-8.09-4.72a13.91,13.91,0,0,0-5.9-4.7,56,56,0,0,1,.79,8.27l3.37,13.07,8-1,8,1L123,117.41a55.22,55.22,0,0,1,.77-8.14C123.27,109.47,122.82,109.68,122.39,109.91Z"/><path class="cls-10" d="M98.86,106.48s-6.69,15.71-6.76,17.87c-.16,4.19,9,5.89,13.19,5.12l1.7-.31S100.78,106.36,98.86,106.48Z"/><path class="cls-10" d="M124.26,106.48S131,122.19,131,124.35c0,4.24-9,5.89-13.19,5.12l-1.7-.31S122.34,106.36,124.26,106.48Z"/><path class="cls-11" d="M101.71,112a10.76,10.76,0,0,1-.28,2.3c-.65,2.85-1.66,5.83-.59,8.72a45.8,45.8,0,0,0,3.29,6.52,5.44,5.44,0,0,0,1.16-.07l1.7-.31S104.14,118.71,101.71,112Z"/><path class="cls-11" d="M120.27,129.39a10.28,10.28,0,0,0,.81-4.2q-.15-4.38-.07-8.74c0-1.26,0-2.48.13-3.68-2.37,6.71-5,16.39-5,16.39l1.7.31A7,7,0,0,0,120.27,129.39Z"/><rect class="cls-3" x="101.05" y="129.34" width="21.04" height="1.25"/><path class="cls-3" d="M125.18,114.75H98a1.26,1.26,0,0,0-1.22,1.64c.25,1.64,3.68,13.11,4.38,13.11H122c.6,0,4.12-11.47,4.37-13.11A1.26,1.26,0,0,0,125.18,114.75Z"/><path class="cls-12" d="M112.7,122.69a1.13,1.13,0,1,1-1.13-1.12A1.14,1.14,0,0,1,112.7,122.69Z"/><path class="cls-3" d="M40.53,77.15s34.09,43,72.89,0C74.62,34.14,40.53,77.15,40.53,77.15Z"/><path class="cls-12" d="M45.63,77.15s29.32,37,62.68,0C75,40.16,45.63,77.15,45.63,77.15Z"/><circle class="cls-13" cx="76.97" cy="77.15" r="16.2" transform="translate(-15.55 134.72) rotate(-76.96)"/><path class="cls-3" d="M87.18,77.15A10.21,10.21,0,1,1,77,66.94,10.21,10.21,0,0,1,87.18,77.15Z"/><path class="cls-12" d="M89.05,70.72a4.15,4.15,0,1,1-4.15-4.15A4.15,4.15,0,0,1,89.05,70.72Z"/><rect class="cls-14" x="27.21" y="18.7" width="48.25" height="32.64" rx="2.19"/><rect class="cls-3" x="29.4" y="21.3" width="43.87" height="27.44"/><polygon class="cls-4" points="45.43 28.68 45.43 42.12 58.52 35.4 45.43 28.68"/></g></g></g></svg>