<?xml version="1.0" encoding="utf-8"?>
<!-- Generator: Adobe Illustrator 24.0.0, SVG Export Plug-In . SVG Version: 6.00 Build 0)  -->
<svg version="1.1" id="Capa_1" xmlns="http://www.w3.org/2000/svg" xmlns:xlink="http://www.w3.org/1999/xlink" x="0px" y="0px"
	 viewBox="0 0 156.8 158.1" style="enable-background:new 0 0 156.8 158.1;" xml:space="preserve">
<style type="text/css">
	.st0{display:none;fill:#32CBCC;}
	.st1{fill:#110239;}
	.st2{fill:#FD425F;}
	.st3{fill:#616161;}
	.st4{fill:#00BAD1;}
	.st5{opacity:0.32;fill:#00547A;enable-background:new    ;}
	.st6{fill:#E45940;}
	.st7{fill:#F88667;}
	.st8{fill:#D0D1DE;}
	.st9{fill:#B8B9CD;}
	.st10{fill:#FFFFFF;}
	.st11{fill:#01C7E2;}
	.st12{fill:#E5E6ED;}
</style>
<title>iconRecurso 2</title>
<g>
	<g id="Capa_2_1_">
		<g id="Capa_1-2">
			<path class="st0" d="M147.1,80.6c0,38.7-31.4,70.1-70.1,70.1C38.4,150.7,7,119.3,7,80.6c0-38.7,31.4-70.1,70.1-70.1c0,0,0,0,0,0
				C115.8,10.5,147.1,41.9,147.1,80.6z"/>
			<path class="st0" d="M92.3,13.7c0,3.7-3,6.6-6.6,6.6c-3.7,0-6.6-3-6.6-6.6s3-6.6,6.6-6.6c0,0,0,0,0,0C89.4,7.1,92.3,10,92.3,13.7
				z"/>
			<path class="st0" d="M99.2,19.1c0,1.8-1.4,3.2-3.2,3.2c-1.8,0-3.2-1.4-3.2-3.2s1.4-3.2,3.2-3.2l0,0
				C97.8,15.9,99.2,17.4,99.2,19.1z"/>
			<path class="st0" d="M148.7,87.6c0,4.6-3.7,8.4-8.4,8.4s-8.4-3.7-8.4-8.4c0-4.6,3.7-8.4,8.4-8.4S148.7,83,148.7,87.6L148.7,87.6z
				"/>
			<path class="st0" d="M156.8,70.7c0,3.3-2.6,5.9-5.9,5.9s-5.9-2.6-5.9-5.9c0-3.3,2.6-5.9,5.9-5.9
				C154.1,64.8,156.8,67.4,156.8,70.7L156.8,70.7z"/>
			<path class="st0" d="M18.9,51.2c0,5.2-4.2,9.4-9.4,9.4c-5.2,0-9.4-4.2-9.4-9.4s4.2-9.4,9.4-9.4c0,0,0,0,0,0
				C14.6,41.7,18.8,45.9,18.9,51.2z"/>
			<path class="st0" d="M73.2,145.9c0,4.5-3.6,8.1-8.1,8.1c-4.5,0-8.1-3.6-8.1-8.1c0-4.5,3.6-8.1,8.1-8.1h0
				C69.6,137.8,73.2,141.5,73.2,145.9z"/>
			<path class="st0" d="M21,29.9c0,3.3-2.7,6-6,6s-6-2.7-6-6s2.7-6,6-6S21,26.5,21,29.9z"/>
			<path class="st0" d="M62.8,4c0,2.2-1.8,4-4,4s-4-1.8-4-4s1.8-4,4-4S62.8,1.8,62.8,4z"/>
			<path class="st0" d="M126.8,4.9c0,1.7-1.3,3-3,3s-3-1.3-3-3s1.3-3,3-3S126.8,3.3,126.8,4.9z"/>
			<path class="st0" d="M37,13.7c0,1.7-1.3,3-3,3s-3-1.3-3-3s1.3-3,3-3S37,12,37,13.7z"/>
			<path class="st0" d="M117.6,8.1c0,3.4-2.7,6.1-6.1,6.1s-6.1-2.7-6.1-6.1s2.7-6.1,6.1-6.1c0,0,0,0,0,0
				C114.8,1.9,117.6,4.7,117.6,8.1z"/>
			<path class="st0" d="M57.3,21.2c0,4.9-4,8.9-8.9,8.9c-4.9,0-8.9-4-8.9-8.9c0-4.9,4-8.9,8.9-8.9c0,0,0,0,0,0
				C53.3,12.3,57.3,16.3,57.3,21.2C57.3,21.2,57.3,21.2,57.3,21.2z"/>
			<path class="st0" d="M49.3,154c0,2.3-1.8,4.1-4.1,4.1c-2.3,0-4.1-1.8-4.1-4.1c0-2.3,1.8-4.1,4.1-4.1c0,0,0,0,0,0
				C47.5,149.9,49.3,151.7,49.3,154z"/>
			<path class="st0" d="M112.2,149.9c0,4.5-3.7,8.2-8.2,8.2c-4.5,0-8.2-3.7-8.2-8.2s3.7-8.2,8.2-8.2c0,0,0,0,0,0
				C108.5,141.7,112.2,145.4,112.2,149.9C112.2,149.9,112.2,149.9,112.2,149.9z"/>
			<path class="st0" d="M126,148c0,2.5-2,4.6-4.6,4.6c-2.5,0-4.6-2-4.6-4.6s2-4.6,4.6-4.6c0,0,0,0,0,0C124,143.5,126,145.5,126,148z
				"/>
			<path class="st0" d="M34,132.6c0,2.2-1.7,3.9-3.9,3.9c-2.2,0-3.9-1.7-3.9-3.9c0-2.2,1.7-3.9,3.9-3.9c0,0,0,0,0,0
				C32.2,128.7,34,130.4,34,132.6z"/>
			<path class="st0" d="M23.6,126.4c0,3.7-3,6.6-6.6,6.6c-3.7,0-6.6-3-6.6-6.6c0-3.6,2.9-6.6,6.6-6.6
				C20.6,119.8,23.6,122.8,23.6,126.4C23.6,126.4,23.6,126.4,23.6,126.4z"/>
			<path class="st0" d="M17,138.8c0,2-1.6,3.7-3.7,3.7s-3.7-1.6-3.7-3.7s1.6-3.7,3.7-3.7c0,0,0,0,0,0C15.4,135.1,17,136.8,17,138.8z
				"/>
			<path class="st0" d="M150.7,114.7c0,1.9-1.6,3.5-3.5,3.5c-1.9,0-3.5-1.6-3.5-3.5c0-1.9,1.6-3.5,3.5-3.5
				C149.1,111.2,150.7,112.7,150.7,114.7z"/>
			<polygon class="st1" points="87.9,136.9 66,136.9 67.8,110.6 86.1,110.6 			"/>
			<path class="st1" d="M90.8,132.7c-0.3-0.4-0.7-0.6-1.2-0.6H64.4c-0.5,0-0.9,0.2-1.2,0.6l-3.3,4.9c-0.4,0.6-0.3,1.5,0.4,2
				c0.2,0.2,0.5,0.2,0.8,0.2h31.8c0.8,0,1.4-0.6,1.4-1.4c0-0.3-0.1-0.6-0.2-0.8L90.8,132.7z"/>
			<path class="st1" d="M23.4,37.6h107c3.4,0,6.1,2.8,6.1,6.2v67.7c0,3.4-2.8,6.2-6.1,6.2h-107c-3.4,0-6.1-2.8-6.1-6.2V43.7
				C17.3,40.3,20.1,37.6,23.4,37.6z"/>
			<rect x="22.8" y="42.9" class="st2" width="108.3" height="68.6"/>
			<path class="st3" d="M117,131.8c-12.6-2.3-27.3-5.1-27.3-0.2c0,4.6,5.6,8.2,10.4,10.5c2.6-1,5.6-1.2,8.3-1.6
				c4.9-0.8,9.8,0,14.7,0c3.1-1.3,5.8-3.3,7.9-5.8C131,134.6,126.7,133.6,117,131.8z"/>
			<path class="st4" d="M106.4,140.5c0.4,0.2-4.4,2.5-4,2.7c2.1,0.6,22.3,0.8,24.2,0.3c3.2-0.8-6-4.8-2.8-5.5
				c5.3-3.7,8.2-8.6,5.4-9.2c-3.2-0.7-8.3,1-11.5,1.4c-2.5,0.3-3.9,0.4-6.3-0.4l-7.9-0.9c-8.1,1.6-9.8,4.5-9.9,4.5
				c0,1.1,5.9,3.5,11.2,6.4C105.4,139.9,105.9,140.2,106.4,140.5z"/>
			<path class="st5" d="M106.4,140.5c0.4,0.2-4.4,2.5-4,2.7c2.1,0.6,22.3,0.8,24.2,0.3c3.2-0.8-6-4.8-2.8-5.5
				c5.3-3.7,8.2-8.6,5.4-9.2c-3.2-0.7-8.3,1-11.5,1.4c-2.5,0.3-3.9,0.4-6.3-0.4l-7.9-0.9c-8.1,1.6-9.8,4.5-9.9,4.5
				c0,1.1,5.9,3.5,11.2,6.4C105.4,139.9,105.9,140.2,106.4,140.5z"/>
			<path d="M103.4,137.4l2.6,3.5c0,0-2.8,2-3.6,2.3s-7.1,0.6-8.8-0.7c-1.5-1.1-2-2.6-1.2-3.3c1-0.9,3.3-1.2,4.5-1.3
				C99.4,137.5,103.4,137.4,103.4,137.4z"/>
			<path class="st4" d="M101.8,137.5l1.5,5.3c0,0,24.9-0.4,27.5-4.2c3.4-3.5,4.7-10.3-2-10.4c-1.5,0.1-3,0.4-4.3,0.9
				C115.3,132.2,101.8,137.5,101.8,137.5z"/>
			<path class="st5" d="M129.4,137.2c-1.5-0.1-2.9-0.7-4.1-1.6c-1.6-0.9-3.4-1.6-5.2-2c-1.5-0.4-3-0.8-4.5-1.4
				c-7.3,2.4-13.8,5.3-13.8,5.3l1.2,4.1c0.6,0.1,1.3,0.3,1.9,0.5c0.8,0.1,1.5,0.2,2.3,0.4l0.5,0.1c7.2-0.4,21.6-1.5,23.5-4.3
				c0.4-0.5,0.8-1.1,1.2-1.7C131.3,136.9,130.4,137.1,129.4,137.2z"/>
			<path d="M123.3,137.7l-2.2,2.7c0,0,3.5,2.1,4.3,2.5s5.8,0.6,7.4-0.6c1.4-1,2-2.4,1.3-3.1c-0.9-0.9-3.1-1.2-4.2-1.4
				C127.7,137.6,125.5,137.6,123.3,137.7z"/>
			<path class="st4" d="M125.8,137l-2.2,6.1c0,0-30.6-2.4-33.1-6.7c-1.5-2.6-1.7-6.5,1.5-8c2-0.9,4.8-1.3,8.7,0.1
				C110.6,132,125.8,137,125.8,137z"/>
			<path class="st6" d="M113.7,96.3h-4.3c0,0-0.6,5.9-1.8,6.6c0,0-1.4,7,3.9,7c6.4,0,3.9-7,3.9-7C114.4,102.2,113.7,96.3,113.7,96.3
				z"/>
			<path class="st7" d="M117.2,97.5c-0.6-0.7-1.3,0.4-1.3,0.4s1-3.9,0-5.6s-4.2-0.8-4.2-0.8s-3.2-0.9-4.2,0.8s0,5.6,0,5.6
				s-0.7-1-1.3-0.4s1,2.4,1.3,2.7c0,0,2.3,4.3,4.2,4.3s4.2-4.3,4.2-4.3C116.2,99.9,117.8,98.2,117.2,97.5z"/>
			<path class="st1" d="M110.9,92.9c0,0-2.4,0.4-2.7,1.7c-0.1,0.7,0,1.3,0.1,2c0.1,0.7,0.2,1.4,0.2,2.2c-0.1,0-0.2,0-0.3-0.1
				c-0.3-0.3-0.6-0.6-0.8-1c-0.5-0.7-1.1-0.6-1.3-0.1c0,0-0.5-6.4,2.1-6.6S110.9,92.9,110.9,92.9z"/>
			<path class="st1" d="M112.5,92.9c0,0,2.4,0.4,2.7,1.7c0.1,0.7,0,1.3-0.1,2c-0.1,0.7-0.2,1.4-0.2,2.2c0.1,0,0.2,0,0.3-0.1
				c0.3-0.3,0.6-0.6,0.8-1c0.5-0.7,1.1-0.6,1.3-0.1c0,0,0.5-6.4-2.1-6.6S112.5,92.9,112.5,92.9z"/>
			<path class="st1" d="M116,91.3c0-0.7-0.5-1.4-1.1-1.7c-1.7-0.8-3.7-0.8-5.5,0c-1.9,0.9-2.5,1.2-3,0.8s-0.2-0.6-0.2-0.6
				s-1.2,0-1.2,1.9s2.4,4.3,5.5,4.3C115.2,96.1,116.8,92.8,116,91.3z"/>
			<path class="st8" d="M115.5,102.9c-0.2,5.9-3.9,5.3-3.9,5.3s-3.7,0.6-3.9-5.3c0,0-5.9,1.6-8.8,3.6c0.8,3.6,1.2,7.3,1.3,10.9
				l3.4,13.1l8-1.5l8,1.5l3.5-13.1c0.1-3.7,0.5-7.3,1.3-10.9C121.4,104.6,115.5,102.9,115.5,102.9z"/>
			<path class="st9" d="M122.4,109.9c-3.7,2-5.4,6.4-9,8.7s-6.3-2.3-8.1-4.7c-1.5-2.1-3.5-3.7-5.9-4.7c0.5,2.7,0.7,5.5,0.8,8.3
				l3.4,13.1l8-1l8,1l3.4-13.1c0.1-2.7,0.3-5.4,0.8-8.1C123.3,109.5,122.8,109.7,122.4,109.9z"/>
			<path class="st8" d="M98.9,106.5c0,0-6.7,15.7-6.8,17.9c-0.2,4.2,9,5.9,13.2,5.1l1.7-0.3C107,129.2,100.8,106.4,98.9,106.5z"/>
			<path class="st8" d="M124.3,106.5c0,0,6.7,15.7,6.7,17.9c0,4.2-9,5.9-13.2,5.1l-1.7-0.3C116.1,129.2,122.3,106.4,124.3,106.5z"/>
			<path class="st9" d="M101.7,112c0,0.8-0.1,1.5-0.3,2.3c-0.7,2.8-1.7,5.8-0.6,8.7c0.9,2.3,2,4.4,3.3,6.5c0.4,0,0.8,0,1.2-0.1
				l1.7-0.3C107,129.2,104.1,118.7,101.7,112z"/>
			<path class="st9" d="M120.3,129.4c0.6-1.3,0.8-2.8,0.8-4.2c-0.1-2.9-0.1-5.8-0.1-8.7c0-1.3,0-2.5,0.1-3.7c-2.4,6.7-5,16.4-5,16.4
				l1.7,0.3C118.6,129.6,119.5,129.6,120.3,129.4z"/>
			<rect x="101.1" y="129.3" class="st1" width="21" height="1.3"/>
			<path class="st1" d="M125.2,114.8H98c-0.7,0-1.3,0.5-1.3,1.2c0,0.1,0,0.3,0.1,0.4c0.3,1.6,3.7,13.1,4.4,13.1H122
				c0.6,0,4.1-11.5,4.4-13.1c0.2-0.7-0.2-1.4-0.8-1.6C125.4,114.8,125.3,114.8,125.2,114.8z"/>
			<path class="st10" d="M112.7,122.7c0,0.6-0.5,1.1-1.1,1.1c-0.6,0-1.1-0.5-1.1-1.1c0-0.6,0.5-1.1,1.1-1.1c0,0,0,0,0,0
				C112.2,121.6,112.7,122.1,112.7,122.7z"/>
			<path class="st1" d="M40.5,77.2c0,0,34.1,43,72.9,0C74.6,34.1,40.5,77.2,40.5,77.2z"/>
			<path class="st10" d="M45.6,77.2c0,0,29.3,37,62.7,0C75,40.2,45.6,77.2,45.6,77.2z"/>
			<circle class="st11" cx="77" cy="77.1" r="16.2"/>
			<path class="st1" d="M87.2,77.2c0,5.6-4.6,10.2-10.2,10.2c-5.6,0-10.2-4.6-10.2-10.2c0-5.6,4.6-10.2,10.2-10.2c0,0,0,0,0,0
				C82.6,67,87.2,71.5,87.2,77.2z"/>
			<path class="st10" d="M89.1,70.7c0,2.3-1.9,4.2-4.2,4.2c-2.3,0-4.2-1.9-4.2-4.2c0-2.3,1.9-4.2,4.2-4.2
				C87.2,66.6,89.1,68.4,89.1,70.7L89.1,70.7z"/>
			<path class="st12" d="M29.4,18.7h43.9c1.2,0,2.2,1,2.2,2.2v28.3c0,1.2-1,2.2-2.2,2.2H29.4c-1.2,0-2.2-1-2.2-2.2V20.9
				C27.2,19.7,28.2,18.7,29.4,18.7z"/>
			<rect x="29.4" y="21.3" class="st1" width="43.9" height="27.4"/>
			<polygon class="st2" points="45.4,28.7 45.4,42.1 58.5,35.4 			"/>
		</g>
	</g>
</g>
</svg>
