<?xml version="1.0" encoding="utf-8"?>
<!-- Generator: Adobe Illustrator 24.0.0, SVG Export Plug-In . SVG Version: 6.00 Build 0)  -->
<svg version="1.1" id="Capa_1" xmlns="http://www.w3.org/2000/svg" xmlns:xlink="http://www.w3.org/1999/xlink" x="0px" y="0px"
	 viewBox="0 0 156.8 158.1" style="enable-background:new 0 0 156.8 158.1;" xml:space="preserve">
<style type="text/css">
	.st0{display:none;fill:#32CBCC;}
	.st1{fill:#110239;}
	.st2{fill:#D0D1DE;}
	.st3{fill:#FFFFFF;}
	.st4{fill:#E4E5EC;}
	.st5{fill:#01C7E2;}
	.st6{fill:#FD425F;}
	.st7{fill:#F88667;}
	.st8{fill:#E45940;}
	.st9{fill:#00A7CC;}
	.st10{fill:#E42244;}
</style>
<title>iconRecurso 5</title>
<g id="Capa_2_1_">
	<g id="Capa_1-2">
		<path class="st0" d="M147.1,80.6c0,38.7-31.4,70.1-70.1,70.1C38.4,150.7,7,119.3,7,80.6c0-38.7,31.4-70.1,70.1-70.1c0,0,0,0,0,0
			C115.8,10.5,147.1,41.9,147.1,80.6z"/>
		<path class="st0" d="M92.3,13.7c0,3.7-3,6.6-6.6,6.6c-3.7,0-6.6-3-6.6-6.6s3-6.6,6.6-6.6c0,0,0,0,0,0C89.4,7.1,92.3,10,92.3,13.7z
			"/>
		<path class="st0" d="M99.2,19.1c0,1.8-1.4,3.2-3.2,3.2c-1.8,0-3.2-1.4-3.2-3.2s1.4-3.2,3.2-3.2l0,0C97.8,15.9,99.2,17.4,99.2,19.1
			z"/>
		<path class="st0" d="M148.7,87.6c0,4.6-3.7,8.4-8.4,8.4s-8.4-3.7-8.4-8.4c0-4.6,3.7-8.4,8.4-8.4S148.7,83,148.7,87.6L148.7,87.6z"
			/>
		<path class="st0" d="M156.8,70.7c0,3.3-2.6,5.9-5.9,5.9s-5.9-2.6-5.9-5.9c0-3.3,2.6-5.9,5.9-5.9C154.1,64.8,156.8,67.4,156.8,70.7
			L156.8,70.7z"/>
		<path class="st0" d="M18.9,51.2c0,5.2-4.2,9.4-9.4,9.4c-5.2,0-9.4-4.2-9.4-9.4s4.2-9.4,9.4-9.4c0,0,0,0,0,0
			C14.6,41.7,18.8,45.9,18.9,51.2z"/>
		<path class="st0" d="M73.2,145.9c0,4.5-3.6,8.1-8.1,8.1c-4.5,0-8.1-3.6-8.1-8.1c0-4.5,3.6-8.1,8.1-8.1h0
			C69.6,137.8,73.2,141.5,73.2,145.9z"/>
		<path class="st0" d="M21,29.9c0,3.3-2.7,6-6,6s-6-2.7-6-6s2.7-6,6-6S21,26.5,21,29.9z"/>
		<path class="st0" d="M62.8,4c0,2.2-1.8,4-4,4s-4-1.8-4-4s1.8-4,4-4S62.8,1.8,62.8,4z"/>
		<path class="st0" d="M126.8,4.9c0,1.7-1.3,3-3,3s-3-1.3-3-3s1.3-3,3-3S126.8,3.3,126.8,4.9z"/>
		<path class="st0" d="M37,13.7c0,1.7-1.3,3-3,3s-3-1.3-3-3s1.3-3,3-3S37,12,37,13.7z"/>
		<path class="st0" d="M117.6,8.1c0,3.4-2.7,6.1-6.1,6.1s-6.1-2.7-6.1-6.1s2.7-6.1,6.1-6.1c0,0,0,0,0,0
			C114.8,1.9,117.6,4.7,117.6,8.1z"/>
		<path class="st0" d="M57.3,21.2c0,4.9-4,8.9-8.9,8.9c-4.9,0-8.9-4-8.9-8.9c0-4.9,4-8.9,8.9-8.9c0,0,0,0,0,0
			C53.3,12.3,57.3,16.3,57.3,21.2C57.3,21.2,57.3,21.2,57.3,21.2z"/>
		<path class="st0" d="M49.3,154c0,2.3-1.8,4.1-4.1,4.1c-2.3,0-4.1-1.8-4.1-4.1c0-2.3,1.8-4.1,4.1-4.1c0,0,0,0,0,0
			C47.5,149.9,49.3,151.7,49.3,154z"/>
		<path class="st0" d="M112.2,149.9c0,4.5-3.7,8.2-8.2,8.2c-4.5,0-8.2-3.7-8.2-8.2s3.7-8.2,8.2-8.2c0,0,0,0,0,0
			C108.5,141.7,112.2,145.4,112.2,149.9C112.2,149.9,112.2,149.9,112.2,149.9z"/>
		<path class="st0" d="M126,148c0,2.5-2,4.6-4.6,4.6c-2.5,0-4.6-2-4.6-4.6s2-4.6,4.6-4.6c0,0,0,0,0,0C124,143.5,126,145.5,126,148z"
			/>
		<path class="st0" d="M34,132.6c0,2.2-1.7,3.9-3.9,3.9c-2.2,0-3.9-1.7-3.9-3.9c0-2.2,1.7-3.9,3.9-3.9c0,0,0,0,0,0
			C32.2,128.7,34,130.4,34,132.6z"/>
		<path class="st0" d="M23.6,126.4c0,3.7-3,6.6-6.6,6.6c-3.7,0-6.6-3-6.6-6.6c0-3.6,2.9-6.6,6.6-6.6
			C20.6,119.8,23.6,122.8,23.6,126.4C23.6,126.4,23.6,126.4,23.6,126.4z"/>
		<path class="st0" d="M17,138.8c0,2-1.6,3.7-3.7,3.7s-3.7-1.6-3.7-3.7s1.6-3.7,3.7-3.7c0,0,0,0,0,0C15.4,135.1,17,136.8,17,138.8z"
			/>
		<path class="st0" d="M150.7,114.7c0,1.9-1.6,3.5-3.5,3.5c-1.9,0-3.5-1.6-3.5-3.5c0-1.9,1.6-3.5,3.5-3.5
			C149.1,111.2,150.7,112.7,150.7,114.7z"/>
		<rect x="36.9" y="107.7" class="st1" width="3.7" height="20.5"/>
		<rect x="106" y="107.7" class="st1" width="3.7" height="20.5"/>
		<rect x="13.4" y="35.9" class="st2" width="119.9" height="73.7"/>
		<rect x="19.1" y="40.8" class="st3" width="108.4" height="63.8"/>
		<path class="st4" d="M94.6,98.6H26.2c0,0,0.3-25.8,8.8-29.5s14,14.9,18,15.2s3.6-15.3,9.3-17.6c14.8-5.9,13.3,17.4,16,17.2
			s5.2-21.6,8.9-21.6C96.3,62.4,94.6,98.6,94.6,98.6z"/>
		<path class="st5" d="M94.6,98.6H26.2c0,0,1.8-22,10.1-25.6s12.1,14.1,16,14.3S60,75,66.2,74.5S76.6,89,79.3,88.8s4.2-24,7.9-24
			C94.6,64.8,94.6,98.6,94.6,98.6z"/>
		<path class="st6" d="M94.6,98.6H26.2c0,0,2.2-10.9,10.6-14.6s12.8,6.5,16.8,6.8s5.5-14.6,11.7-15.1s2.8,18,12.5,18
			c7.1,0,6-15.2,9.8-15.2C95,78.5,94.6,98.6,94.6,98.6z"/>
		<rect x="102.6" y="61.3" class="st4" width="20.3" height="3.5"/>
		<rect x="102.6" y="69.2" class="st4" width="20.3" height="3.6"/>
		<rect x="102.6" y="77.1" class="st5" width="20.3" height="3.6"/>
		<rect x="102.6" y="85" class="st4" width="20.3" height="3.6"/>
		<rect x="102.6" y="92.9" class="st6" width="20.3" height="3.6"/>
		<rect x="24.4" y="44.6" class="st5" width="3.7" height="3.7"/>
		<rect x="31.6" y="44.6" class="st4" width="16.8" height="3.7"/>
		<rect x="24.4" y="50.9" class="st5" width="3.7" height="3.7"/>
		<rect x="31.6" y="50.9" class="st4" width="16.8" height="3.7"/>
		<rect x="24.4" y="57.1" class="st5" width="3.7" height="3.7"/>
		<rect x="31.6" y="57.1" class="st4" width="16.8" height="3.7"/>
		<rect x="70.1" y="44.6" class="st4" width="52.7" height="5.2"/>
		<rect x="55.7" y="55.6" class="st4" width="26.5" height="4.4"/>
		<rect x="33.9" y="125.6" class="st2" width="9.7" height="3.6"/>
		<rect x="103" y="125.6" class="st2" width="9.7" height="3.6"/>
		<path class="st5" d="M59.7,45.6c1.3,0.1,2.5,0.7,2.5,2H60c0-0.5-0.5-0.6-0.8-0.6s-0.9,0-0.8,0.4c0,0.9,4.1-0.1,4.1,2.5
			c0,1.5-1.2,2.1-2.7,2.2l0.1,1.6h-1.4l0.1-1.7c-1.4-0.1-2.7-0.8-2.7-2.1h2.2l0,0c0,0.6,0.7,0.7,1,0.7s1,0,1-0.5
			c0-1-4.1-0.1-4.1-2.5c0-1.4,1.1-2,2.5-2.1L58.4,44h1.3L59.7,45.6z"/>
		<polygon class="st6" points="68.3,47.8 66.2,43.7 64.1,47.8 65.6,47.8 65.6,53.8 66.9,53.8 66.9,47.8 		"/>
		<path class="st7" d="M125.8,69.5c-1.6,1.1-2.8,2.7-3.6,4.4c-1.6,3.3-2.7,5-2.8,4.8c-0.9-0.7-3.2-2.7-6.5-7.9c-0.4-0.6,0-1,0-1.6
			s0.7-1.7,0.5-2s-0.6-0.3-0.9,0.5s-0.3,1.3-0.6,1.1c-0.5-0.5-1-1-1.3-1.6c-0.3-0.4-1-1.2-1.3-1.1s-0.3,0.3,0.9,2
			c-0.4-0.6-1.5-2-1.9-1.7s0.8,1.5,1.2,2.1c-0.4-0.5-1.3-1.5-1.7-1.1s1.6,1.9,1.6,1.9s-1.5-1.2-1.7-0.8s0.7,1.1,1.5,1.6
			s1,0.7,1.3,0.8c0.3,0.3,0.6,0.6,0.8,1c0,0,6.2,13.2,8.4,12s5.2-5.5,5.2-5.5c0.6-1.1,0.9-2.2,1.1-3.4
			C126.4,73.2,126.3,71.3,125.8,69.5z"/>
		<path class="st6" d="M121,75.1c0.4-1,3-6.3,4.9-7l2.5,1c1.1,1.4-0.3,4.6-0.8,4.9s-2.2,3.9-2.6,4.4C123.6,77.4,122.2,76.3,121,75.1
			z"/>
		<path class="st8" d="M130.3,60.6l3.5,0.5c-0.6,1.9-0.4,4,0.5,5.8c0,0-2.5,2.8-4.3,2c-1.1-0.4-1.6-1.6-1.2-2.7
			C128.8,66.3,130.8,64.7,130.3,60.6z"/>
		<path class="st1" d="M137.3,126.6c0,0,1,3.8,0.4,4.4s-8.5,2-9.2,1.3s-0.5-1.9,1.1-2.6s2.7-0.4,3.7-1s0.5-2.3,0.5-2.3L137.3,126.6z
			"/>
		<path class="st1" d="M127.5,126c0,0,0.2,4.7-0.4,5.3s-8.7,0.6-9.3-0.1s-0.3-1.8,1.3-2.1c1.5-0.3,2.6,0,3.7-0.5s1.5-2.7,1.5-2.7
			L127.5,126z"/>
		<path class="st5" d="M124.1,86.4l10.3-1.8c0,0-3.9,21.3-4.4,23.7s-2.1,18.6-2.1,18.6l-4.5-0.5c0,0,0.1-17.7,0.3-19.3
			S124.1,86.4,124.1,86.4z"/>
		<path class="st9" d="M127.9,94.9c-0.5-3.3-0.2-5.9-0.9-7.6c-0.3-0.6-1.3-0.5-1.5-1.1c0.1-0.2,0.2-0.3,0.3-0.5l8.6-1.3
			c0,0-3.9,18.3-4.9,22.8C129.6,107.2,128.3,97.5,127.9,94.9z"/>
		<path class="st5" d="M128.4,85.4l8.3,2.1c0.7,2.2,0.8,4.6,0.5,6.9c-0.7,4.6-0.8,11.9-0.8,12.8s1.6,16.6,1.7,20.3l-4.5,0.2
			c0,0-3.4-19.5-3.6-20S128.4,85.4,128.4,85.4z"/>
		<path class="st6" d="M124.6,78.1c0.2-3.5-0.8-8.8,1.3-10l3.2-1.9c0.3,0.7,1,1.3,1.7,1.4c1.2,0.2,3.2-1.7,3.2-1.7s2.2,1.3,4.3,2.2
			c-0.5,1.6,0.5,3.1,0.5,4.7c0,0.9,0.1,1.8,0.4,2.6c-0.8,1.5-1.4,3.1-1.8,4.7c-0.4,3.2,1,8.1,1,8.1c-2.5,0.6-5.1,1-7.7,1.2
			c-2.6,0.1-5.1-0.2-7.6-0.9C123.7,85.1,124.2,81.6,124.6,78.1z"/>
		<path class="st10" d="M139,75.5c-0.1-0.2-0.1-0.5-0.1-0.7s-0.1-0.3-0.1-0.5c-0.1-0.5-0.1-0.9-0.1-1.4c0-0.8-0.1-1.6-0.1-2.5
			c-0.4,0.3-0.9,1-1.4,0.7c-2.4-1.4-2.7,5-2.7,8.2s-0.1,7-1.4,9.9c1.7-0.2,3.4-0.5,5.1-0.9c0,0-0.2-0.7-0.4-1.7
			c-0.1-0.5-0.2-1.1-0.3-1.8c0-0.2-0.1-0.4-0.1-0.7c-0.1-0.7-0.2-1.3-0.2-2c0-0.6,0-1.3,0.1-1.9C137.6,78.6,138.2,77,139,75.5z"/>
		<path class="st7" d="M133.7,54.7c0,0-5.1-0.8-5.6-0.2s-0.7,2.6-0.7,4.3s-0.7,5,1.3,5.6s5.8-1.3,7.2-4.7
			C137.7,55.5,134.1,54.8,133.7,54.7z"/>
		<path class="st1" d="M134.6,54.3c0,0-2.4,0.1-2.8,3.7c-0.2,1.6-0.6,2.9-0.1,3c0.5,0.1,0.9-0.2,1-0.7c0,0,0,0,0-0.1
			c0-0.5,0.1-2,1.1-1.6s0.6,2.3-0.6,2.8c-0.1,0.6,0.1,1.3,0.7,1.6c1.5-1,2.6-2.6,2.9-4.4C137.2,55.8,136.1,54.3,134.6,54.3z"/>
		<path class="st1" d="M135.6,54.7c-0.4-1.4-1.7-2.4-3.2-2.5c-2.5-0.1-4.9,1.3-6.1,3.6c0,0,0.8,1.2,3.5,1.4c1.4,0,2.9-0.2,4.2-0.8
			C134.7,56.1,135.3,55.4,135.6,54.7z"/>
		<path class="st7" d="M142.4,83.9c-0.2-0.8-0.9-5.6-1.2-7.4c-1.6,0.5-3,1-4.6,1.5c0.7,2.1,1.3,4.3,1.7,6.6
			c0.2,1.6-0.6,8.8-0.8,11.3l0,0c0,0.2,0,0.4-0.1,0.5c-0.1,0.5-0.3,1-0.6,1.5c-0.4,0.4-1.6,1.9-1.4,2.6s1.2-0.5,1.6-0.9
			s0.4,0.9,0.3,1.7s-1.6,1.9-1.4,2.4c0.1,0.3,0.6,0.1,1.1-0.5c-0.3,0.4-0.5,0.8-0.3,0.9s0.6-0.1,1-0.5c-0.2,0.3-0.4,0.6-0.2,0.7
			s0.6-0.2,1-0.7c-0.2,0.3-0.3,0.6-0.2,0.7s1.1-0.6,1.4-1.6c0.3-0.8-0.4-3.2-0.6-4.4c-0.1-0.4,0-0.7,0.1-1.1
			C140.1,94.9,142.9,86.2,142.4,83.9z"/>
		<path class="st6" d="M136.6,79.6c1.9-0.3,3.8-0.9,5.6-1.7c-0.4-3-1.5-7.2-3-8.8c-0.4-0.4-1.2-1.3-1.9-1c-0.9,0.3-2.1,1.6-2.2,4
			c0.1,1.8,0.4,3.6,0.9,5.3C136.2,77.9,136.4,78.8,136.6,79.6z"/>
	</g>
</g>
</svg>
