<?xml version="1.0" encoding="utf-8"?>
<!-- Generator: Adobe Illustrator 24.0.0, SVG Export Plug-In . SVG Version: 6.00 Build 0)  -->
<svg version="1.1" id="Capa_1" xmlns="http://www.w3.org/2000/svg" xmlns:xlink="http://www.w3.org/1999/xlink" x="0px" y="0px"
	 viewBox="0 0 1180 1176" style="enable-background:new 0 0 1180 1176;" xml:space="preserve">
<style type="text/css">
	.st0{clip-path:url(#SVGID_2_);}
	.st1{fill:#FEFEFE;}
	.st2{fill:#F5911F;}
	.st3{fill:#FFCB00;}
</style>
<g>
	<defs>
		<rect id="SVGID_1_" width="1179.9" height="1176.1"/>
	</defs>
	<clipPath id="SVGID_2_">
		<use xlink:href="#SVGID_1_"  style="overflow:visible;"/>
	</clipPath>
	<g class="st0">
		<path class="st1" d="M1179.9,1067.5c0,83.3,0,166.6,0,250c-1.7,0.1-3.1-0.4-4.6-1.4c-2.7-1.7-13.4,0.8-14.9,3
			c-1.6,2.3,0.3,12.9,1.9,15.4c4.3,7,11.1,6.1,17.7,5.9c0,76.3,0,152.6,0.1,228.9c0,3.3-0.5,4.2-4,4.2c-390.7-0.1-781.4-0.1-1172,0
			c-3.7,0-3.9-1.2-3.9-4.3c0.1-212.6,0.1-425.2,0.1-637.7c13,6.1,26.3,11,40.2,14.7c31.3,8.3,63.1,9,95.1,5.8
			c21-2.1,41.7-6.6,62.2-11.6c41.4-9.9,81.2-23.9,118.7-44.2c39.8-21.5,74-50.3,105.5-82.4c17.2-17.5,34-35.3,51.7-52.2
			c22.4-21.6,47.6-39.5,75.2-54.2c33.1-17.6,68.3-28.5,105.3-33.9c30.9-4.5,62-4.7,93.2-3.3c27.8,1.2,55.4,4.1,83.1,6.7
			c32.6,3.1,65.2,6.3,98,6.8c44.9,0.7,89.1-3.8,131.9-18.4c40-13.6,75.9-34.7,108.4-61.6c3.6-3,6.4-7.2,11.5-8.2c0,58,0,116,0,174
			c-7.2,0.5-12.1,11.3-7.5,17.4c1.9,2.5,2.6,7.2,7.5,6.6c0,29,0,58,0,87c-3.3,1.4-4-2.8-6.7-3.1c-7.2-0.9-12,2.9-16,7.8
			c-1.6,1.9-2.3,4.5-1.8,7.5c0.7,5.1,7.4,8.5,12.9,8.4c4.5-0.1,7.5-3.2,11.6-3.6c0,48,0,96,0,144c-6-1.2-9.9,2-13.4,6.3
			c-2.3,2.8-1.2,6-1.8,9c-0.9,4.2,3.1,7.7,5,8.1C1173.1,1065.6,1176.3,1067.7,1179.9,1067.5z M568,1203.4c0,8.8,4.4,14,11.7,14.1
			c6.2,0,14.2-6.4,14.3-11.5c0.1-9.2-5.1-15.5-13-15.5C572.4,1190.5,568,1194.8,568,1203.4z M576,1368.1c0,7.9,5.4,13.4,13.1,13.4
			c8,0,13.9-5.1,13.9-11.9c0-8.5-5.6-14-14.3-14C580.8,1355.4,576,1360.2,576,1368.1z M628.2,1305.5c-7.2,0-12.3,5.7-12.2,14
			c0,2.9-1.3,6.6,1.9,8.2c3.6,1.8,6.6,4.9,11.1,4.8c7.7-0.1,12.9-6,13-15C642,1310.9,635.9,1305.5,628.2,1305.5z M640,1377.1
			c0,9.2,5.3,14.2,13.8,13.3c7.7-0.8,15-13.3,11.8-20.2c-0.1-0.3-0.5-0.5-0.6-0.8c-2.4-3.9-10.9-7.6-15.2-5.8
			c-3.4,1.4-6.5,3.9-9.1,6.5C638.9,1372,640.3,1375,640,1377.1z M1153.7,1009.5c5.9,0,13.3-5.5,14.2-10.5c0.7-4.3-2.5-11.7-5.9-13.5
			c-3.3-1.8-14.8-1.2-17.1,0.8c-2.8,2.4-5.1,12.2-3.8,16.2C1142.2,1005.8,1148.9,1009.5,1153.7,1009.5z M552,1310
			c-1.8,8.1,6.6,13.7,13.2,13.6c8.5-0.2,12.7-4.5,12.9-13.1c0.1-6.3-5.6-14-13.3-13.2C557,1298.2,552,1302.3,552,1310z
			 M604.1,1273.5c10.4,1.6,13-5,13.7-12c0.8-8.1-5.7-14.1-13.9-14c-7,0.1-11.9,5.7-11.9,13.8C592,1271.3,594.2,1273.5,604.1,1273.5z
			 M1079.9,932.9c1.8-7.8-6.7-14-13.2-13.3c-10.1,1-12.1,2.7-12.7,13c-0.5,7.7,5.6,12.9,13.8,12.9
			C1075,945.6,1079.9,940.4,1079.9,932.9z M1055.9,875.8c0-6.8-6.7-14.6-12.7-14.1c-9,0.6-14.3,3.5-14.3,11.9
			c0,8.3,6.3,14.1,15.1,14C1049.9,887.5,1055.9,881.5,1055.9,875.8z M1036.3,1161.5c7.6,0,14.7-6,14.6-12.3
			c-0.1-7.6-6.9-13.8-15.1-13.7c-6.5,0.1-11.8,5.7-11.8,12.4C1023.9,1155.6,1029.3,1161.5,1036.3,1161.5z M972.3,1153.5
			c7.8,0.1,15.7-9,15.3-17.5c-0.1-2.3-7.6-9.2-10.1-9.3c-9.4-0.4-17.3,5.8-17.5,13.7C959.8,1146.2,966.6,1153.4,972.3,1153.5z
			 M950.3,1069.5c-7.7-0.1-14.3,6.3-14.4,13.7c0,5.6,6.2,11.8,12.2,12.1c6.9,0.4,14.6-6.6,14.8-13.5
			C963.2,1073.8,959,1069.6,950.3,1069.5z M1057.7,753.6c-9.1,0-13.7,4.3-13.8,12.8c0,8,3.8,11.2,13.2,11.2c8.4,0,13.9-5,13.8-12.6
			C1070.9,757.4,1066.5,753.6,1057.7,753.6z M912.1,1025.9c0.3,2.3-1.4,6.1,0.7,6.9c3.7,1.3,6.2,4.9,10.7,4.8
			c8.8-0.3,13.5-5.4,14.5-14.1c0.4-3.9-0.6-8-3.5-9.6c-4-2.3-9.7-4.3-13.7-1.7C916.3,1015.2,909.6,1018,912.1,1025.9z M1067.9,822.6
			c0,5.8,6,13.7,10.5,13.8c10.1,0.3,16.4-5.2,16.5-14.5c0.1-6.3-7.1-11.8-15.7-12.1C1075,809.8,1067.9,817.7,1067.9,822.6z
			 M1105.6,893.6c5.9,0,14.4-6.5,14.2-10.7c-0.4-8.1-6.1-14.3-13-14.3c-8.8,0-15.3,5.6-14.8,13.2
			C1092.6,889.7,1097.9,894.3,1105.6,893.6z M1031.9,818c0-8.7-4.6-13.4-13.1-13.4c-9.8,0-13.3,3.5-13.4,13.3
			c-0.1,5.4,7.7,11.8,14.2,11.7C1028,829.6,1031.9,825.8,1031.9,818z M781,1284.3c0,6.3,5.4,13.3,10.1,13.2
			c6.1-0.1,16.6-9.7,16.9-15.3c0.2-5.8-8.2-12.2-16.5-12.4C787.1,1269.8,781,1278.2,781,1284.3z M540.6,1265.5
			c7.8,0,13.4-5.1,13.4-12.1c-0.1-7.8-6.5-13.9-14.5-13.9c-6.9,0.1-11.5,5.6-11.5,13.6C528,1261.5,532.1,1265.5,540.6,1265.5z
			 M568,1145.8c0-8.6-4.1-13.2-11.8-13.2c-7.7-0.1-12.2,4.6-12.2,12.5c0,9.7,3.9,14.4,11.9,14.5C563.5,1159.5,568,1154.4,568,1145.8
			z M971.2,713.6c8.6,0,12.8-3.8,12.8-11.8c0-6.4-7.5-14.3-13.6-14.2c-8.2,0.1-11.9,5.3-12.3,12.8
			C957.7,707,962.4,715.5,971.2,713.6z M1034.9,1254.7c0-5.2-5.9-13.1-10-13.2c-8.2-0.3-16.9,8.8-16.9,17.5c0,3.4,8.5,9.1,13.1,9.5
			C1027.6,1269.2,1035.9,1261.1,1034.9,1254.7z M854,1398.9c0-8.7-3.8-13.3-10.9-13.4c-9.1-0.1-14.5,7.5-14.7,16.9
			c-0.1,3.7,7.3,10,11.5,10.1C847.8,1412.6,854,1406.7,854,1398.9z M1130.1,951.6c7.1,0,14-7.2,13.8-14.6
			c-0.2-5.7-7.9-10.9-16.5-11.1c-3.1-0.1-11.3,8.1-11.1,11.2C1117,946.6,1120.6,952.3,1130.1,951.6z M1091,977.5
			c-8.8,0-13.1,4-13.1,12.1c0,7.4,6.7,14,14.1,13.9c6.4-0.1,11.9-5.6,11.9-12.2C1103.9,983,1098.8,977.5,1091,977.5z M1045.9,708.6
			c0-10.1-4.3-13.8-15.6-13.9c-3.9,0-10.3,8.6-10.4,13.9c0,6.5,5.3,13.5,10.8,12.4c4-0.8,9.1-0.3,12.3-4.1
			C1045.2,714.3,1046.6,711.6,1045.9,708.6z M994.1,745.6c-7,0-13.5,5.8-13.1,12.2c0.5,8.3,6.6,13.1,15,13.7
			c6.5,0.5,11.9-5.5,11.9-12.2C1007.9,752.7,1000.7,745.6,994.1,745.6z M1062.3,1217.5c9.1,0,12.5-2.8,12.6-10.3
			c0.1-8-5.9-13.7-14.3-13.7c-7.5,0-12.7,5-12.7,12.3C1047.9,1214.2,1052,1217.5,1062.3,1217.5z M1095.9,1321.4
			c0.4,2.4-1.1,6.4,0.7,7.1c4.3,1.6,7.5,5.4,12.9,5.2c11.5-0.3,12.3-3.3,13.3-12.2c0.9-8.1-6.7-11.5-14.5-12.1
			c-4.9-0.4-7.7,3.5-11.6,4.9C1094.8,1315,1096.2,1319,1095.9,1321.4z M888,967.1c-1.6,6.9,6.8,12.6,12.2,12.5
			c8.3-0.1,13.8-6,13.8-14.9c0-6.3-5.3-11.1-12.2-11.1C894.1,953.6,887.9,959.6,888,967.1z M1127.9,1049.6c0-8.2-5-14.2-12-14
			c-7.9,0.2-14.6,3.1-14,10.9c0.8,10,4,13.3,15,14C1124.8,1060.9,1127.9,1057.5,1127.9,1049.6z M504,1193.6c0,8.3,5,14.1,12.2,13.9
			c7.8-0.3,14.1-3.1,13.9-10.6c-0.3-9.1-4.9-14.1-13-14.3C508,1182.4,504,1185.8,504,1193.6z M1013.6,1078.5
			c-5.4-0.6-10.4,1.6-13.2,5.3c-3.7,5,0.3,14.7,6.1,17.5c4.2,2,14.8,1.7,16.7-0.9c2.7-3.8,4.6-8.3,3.4-12.9
			C1025.3,1082.5,1018.8,1078.5,1013.6,1078.5z M975.9,1032.3c-1.6,8.4,6.3,12.4,16.6,12.9c4,0.2,10.3-6.9,10.3-11.5
			c0.1-8.4-5.3-13.1-15-13.1C980.7,1020.5,975.9,1025.2,975.9,1032.3z M817,1353.5c3.9,1.8,6.9-1.3,9.9-4.5c5.9-6.4,4.1-17.6-3.4-21
			c-3.6-1.7-6.6,0.4-9.8,1.4c-5.9,1.8-9.7,8.5-8.6,15.9C805.8,1350.9,809.3,1353.5,817,1353.5z M1058.9,1311.3
			c0-6.5-4.3-10.7-11-10.8c-6.5,0-16.1,7.1-16,11.8c0.2,6.7,7,13.9,12.9,14.3c5.2,0.3,8.3-3.9,12.2-6
			C1059.1,1319.5,1059.1,1314.6,1058.9,1311.3z M892,1227.5c-5.8,0-9.1,5-9,13.4c0.1,5.6,8,12.9,14.1,12.5c6.8-0.4,12-4.8,11.8-12.1
			C908.8,1233.9,901.8,1227.2,892,1227.5z M797,996.6c-4.5-0.2-11.1,4.7-11,8.4c0.2,10.1,5.3,16.5,14.2,17.5
			c5.6,0.6,12.3-5.5,12.5-11.6C812.9,1002.8,806.5,996.9,797,996.6z M875.9,921.5c6.7,0.6,10.7-3,13.5-8.5
			c1.7-3.3-0.2-14.8-2.7-15.1c-5.4-0.8-11.1-1.4-16.3,0.2c-5,1.6-7.7,9.5-6.4,15.7C864.8,917.7,870.8,921.6,875.9,921.5z
			 M943.9,751.8c0-7.4-6.5-13.7-13.5-14.4c-8.6-0.8-12,5.7-12.5,12.3c-0.5,6.1,8.1,14.2,14,13.8
			C937.6,763.2,945.4,758.7,943.9,751.8z M996.7,1209.5c3.8,0.5,8.5,0.4,10.9-4.8c0.6-1.3,1-2.4,2.2-3.6c3.1-3-0.1-14.9-4.3-15.3
			c-5.9-0.6-12.3-2-17,3.7c-2.7,3.3-6.1,6.5-4.3,11.4C987.1,1208.6,988.4,1209.5,996.7,1209.5z M967.9,810.3c0-8.7-5-14.7-12.2-14.7
			c-8.4,0-14.2,4.1-13.7,10.2c0.6,7.2,5.8,15.6,14.4,14.9C964.5,820.1,967.9,817.6,967.9,810.3z M1028.4,993.4
			c4.8,0.7,10.1,0.3,11-4.4c0.9-4.9,2.4-10.7-2.8-15.6c-4-3.8-8-3.9-12.7-3.8c-6.5,0.1-12.8,10.1-9.3,15.5
			C1017.8,989.9,1021.2,995.4,1028.4,993.4z M834.2,1222.5c-1.8-0.1-4.1,0.5-6.3,0.7c-7.6,0.7-9.1,8-8.4,13.1
			c0.8,5.8,5.3,8.6,10.3,9.4c5.4,0.8,11.1,0.3,14.1-5.5c1.3-2.6,4.7-4.2,3.9-7.7C846.5,1226.9,840.7,1222.5,834.2,1222.5z
			 M1175.9,1164c0.7-4.8-0.3-9.4-6.9-10.7c-0.4-0.1-0.7-0.7-1-1c-2.9-2.6-15.4-0.9-15.6,2.5c-0.2,4.6-4.3,8.7-0.9,14
			c3.3,5.2,7.9,8,15.4,6.6C1175.2,1173.7,1175.9,1172.9,1175.9,1164z M1119.9,1379.4c0,5.7,6.7,12.2,12.6,12c9-0.3,15.1-4.4,15-14.7
			c-0.1-4.3-6.3-9.2-14.3-9.2C1125.2,1367.4,1120,1372.2,1119.9,1379.4z M840,851.2c0,7.7,4.5,12.5,12,12.3
			c8.2-0.2,13.7-4.7,13.9-12.7c0.2-6.3-5.7-13.1-9.5-12.9C846.9,838.3,840,843.9,840,851.2z M845.5,1113.7
			c-9.1-0.9-10.5,0.5-10.5,10.6c0,0.5,0,1,0,1.5c0.2,8.5,12.8,15.9,19.9,11.4c5.6-3.5,5.6-9.6,5-15.5c-0.5-4.8-4.3-6.5-8-7.8
			C850,1113.1,847.6,1113.7,845.5,1113.7z M940.5,905.6c-8.6,0-12.5,3.5-12.5,11.1c0,8.9,3.8,12.9,12.2,12.9
			c8.6,0,13.9-4.5,13.8-12.1C953.9,910.2,948.7,905.6,940.5,905.6z M931.9,1299.1c1.8-10-6.8-13.7-14.4-13.6
			c-6.3,0-10.4,4.7-10.6,11.5c-0.2,6.9,6.5,14.1,15.1,13.6C929.6,1310.1,931.9,1307.8,931.9,1299.1z M1084.9,1275.5
			c8.2,0.1,15-5.4,14.5-9.4c-1.1-10.9-4.4-13.4-15.3-14.5c-5.2-0.5-12.2,6.4-12.2,11.3C1071.9,1270.7,1076.9,1275.5,1084.9,1275.5z
			 M719.8,1121.5c8.1,0,14.3-5.4,14.2-12.4c-0.1-8.3-2.8-11.6-9.5-11.7c-10.5,0-16.4,4.7-16.5,12.9
			C707.9,1118.3,711.4,1121.5,719.8,1121.5z M632,1153.2c0-8-5.2-12.5-14-12.7c-11.3-0.3-11.9,5.3-12.5,13.6
			c-0.4,4.3,8.4,10.4,14.4,10.4C627.5,1164.6,632,1160.4,632,1153.2z M964.8,963.6c-1.5,0-3-0.1-4.5,0c-3.9,0.4-7.2,2.5-8.3,6
			c-2.4,8.4,0.7,14.1,8.5,17.5c3.2,1.4,13.5-1.3,14.9-4.1c2.6-5.1,4.1-10.4,0.4-15.6C973.2,963.6,969,963.4,964.8,963.6z
			 M758,1165.8c0.1-6-4.2-9.7-10.2-10.4c-11.1-1.3-15.3,6.6-15.7,14.2c-0.3,4.7,7.2,11.6,12,11.6
			C751.2,1181.2,757.9,1173.8,758,1165.8z M956.9,1357.6c0.2-9.1-7-13.4-16.5-14c-5.5-0.4-9.3,3.4-9.3,8.4
			c-0.1,8,6.1,17.6,11.3,17.4C951.9,1369.2,956.9,1365.1,956.9,1357.6z M1057.9,1371.5c0,8,3.2,11.9,9.9,11.9
			c9.6,0,14.9-4.8,15.1-13.7c0.1-5.7-6.5-12.5-12.1-12.2C1064.1,1358,1057,1363.2,1057.9,1371.5z M680,1269.7
			c0-8.5-4.8-14.2-12-14.2c-8.9,0-13.8,4.6-14,12.7c-0.3,8,4.8,10.9,15.5,11.2C677.4,1279.7,680,1277.1,680,1269.7z M1159.9,1272.6
			c0-9.3-4.6-15.1-12.1-15.1c-8.3,0-11.9,3.4-11.9,11.1c0,7.9,5.8,14.9,12.1,14.8C1157,1283.4,1159.9,1280.7,1159.9,1272.6z
			 M872.6,1193.5c9.9,0.5,11.2,0.2,11.5-11.4c0.1-5.4-3.3-7.5-6.9-10.4c-4.1-3.4-9-3.2-11.9-1.5c-3.5,2-7.4,5.5-7.4,10.9
			C857.9,1188.2,864.1,1193.5,872.6,1193.5z M698.7,1039.5c-8.5,0-14.7,5.6-14.7,13.2c-0.1,7.1,5.3,12.7,12.1,12.8
			c5.6,0.1,12.7-7.7,12.9-13.8C709.2,1043.2,706,1039.3,698.7,1039.5z M757,1226.9c-1.5,7.1,5.8,11.7,11.1,11.6
			c7.7-0.2,13.9-7.4,13.9-16.9c0-4.3-5.1-9.1-9.7-9.1C762.5,1212.5,757.6,1217,757,1226.9z M882.2,1337.5c-8.3,0-14.3,5.1-14.2,12.2
			c0.1,6.7,5.3,11.8,12,11.8c8.8,0,14-4.8,14-13.1C893.9,1340.6,890.6,1337.5,882.2,1337.5z M836,1068.7c0-5.8-6.9-14.8-11.5-14.8
			c-9.1,0.2-14.1,4.6-14.4,11.1c-0.4,7.9,6.6,14.6,14.6,14.5C832.2,1079.4,835.9,1075.8,836,1068.7z M913,1121.5
			c-8.1,0-15.1,6.1-15,13.2c0,7.4,3.4,10.8,10.9,10.8c9.4,0,15.1-5,15.1-13.1C923.9,1124.8,920.6,1121.5,913,1121.5z M968,1425.5
			c9.5,0,13-3.1,13-12c0-6-6-12-11.9-12c-10.1,0-13.1,2.4-13.1,10.7C955.9,1422.2,958.9,1425.5,968,1425.5z M807.8,1187.5
			c10.3,0,14.2-3.6,14.2-13.3c0-5.1-5.6-9.3-11.7-9.8c-9.4-0.8-15.1,7.3-15.2,12.6C794.9,1184.4,798.7,1187.5,807.8,1187.5z
			 M704,1327.6c0-8.1-4.9-14.1-11.5-14.2c-9.2,0-14.4,4.3-14.5,12c-0.1,7,6.7,11.9,15.1,12C701.1,1337.6,704,1334.9,704,1327.6z
			 M892.3,789.6c-7.9,0-12.4,3.4-12.4,9.5c0,11,2.7,14.4,11.5,14.5c8.2,0,14.5-5.1,14.4-11.8C905.8,794.9,899.9,789.6,892.3,789.6z
			 M1111.9,1156.6c-0.2-3.9,1-7.8-2.8-10.3c-4.2-2.8-8.8-4.5-13.7-4.3c-3.1,0.1-5.8,2.8-7.2,5.2c-2.4,4,0.4,13.8,3.9,16.9
			c5.4,4.9,11.1,3.6,17,1.2C1113.9,1163.5,1111,1159.3,1111.9,1156.6z M696,1160c-0.7-1.8,1.4-4.6-1.5-6.4
			c-5.3-3.2-10.6-5.4-17.2-3.3c-3.9,1.3-9.6,8-8.8,12.2c1.3,7.4,7.1,10.8,16.7,10C691.6,1172,696,1167,696,1160z M1064,1041.8
			c-0.1-2.4,0.4-5.2-0.6-7.2c-3-6.3-11.2-8.9-18.5-6.6c-4,1.2-5.7,3.8-6.1,7.8c-0.7,8.1,2.3,13.1,10.2,15.5
			c4.8,1.5,9.6-0.4,13.8-2.4C1065.3,1047.9,1063.4,1044.3,1064,1041.8z M1087.6,1097.6c2.5-6.1-2.1-8.9-6.1-11.7
			c-4.7-3.3-15.8-0.8-17.2,4c-1.3,4.5-0.6,9.2-0.3,13.9c0.2,2.9,3.6,1.2,5.2,2.9c3.8,4.1,8.8,3.8,13.3,1.8
			C1087,1106.6,1089.3,1102.9,1087.6,1097.6z M1151.7,1105.5c1.4-4.9-0.6-7.5-5-10c-5.8-3.2-14.6-2.9-17.9,2.3
			c-1.8,2.8-1.3,6.6-1.2,10c0.1,3,1.3,4.9,3.9,7.1c4.6,3.9,9.3,4.6,14.2,2.3C1150.3,1115.1,1153.5,1111.4,1151.7,1105.5z
			 M1120,785.6c8.2,0,13.9-5,13.9-12.1c0-7.2-4.9-11.9-12.1-11.9c-8.1,0-13.9,5.3-13.9,12.7C1107.9,782.5,1111.2,785.6,1120,785.6z
			 M655.9,1211.6c0.1-3.7,0.6-7-2.8-9.3c-4.2-2.9-8.8-4.1-13.8-4.4c-1.9-0.1-9.3,4.8-9.4,6.3c-0.8,9.2-3,9.8,6.8,15.5
			c4.3,2.5,9.3,3,13.8,0.8C654,1218.8,657.5,1216.2,655.9,1211.6z M503.5,1292.5c-2.5-0.3-5.2,0.5-7.8,1.7
			c-4.2,1.9-9.5,10.9-7.3,14.6c4.8,8.2,16.3,10.1,23.3,3.8c4.3-3.9,4-8.6,3.1-13.4C514.1,1295.5,508.8,1292.5,503.5,1292.5z
			 M968,864.6c-0.4,4.3-0.4,8.2,3.8,11.3c6,4.4,16.8,3.4,19.5-3.4c1.8-4.4,1.9-9.8-2.3-14.2c-4.5-4.8-8.8-5.9-16.2-4
			C966.5,856,968.2,860.6,968,864.6z M754.2,1345.5c2.5,0,4.2,0.3,5.7-0.1c3.6-1,7-3,7.9-6.7c1.5-6.3-1-11.6-5.7-15.9
			c-0.6-0.6-1.2-1.4-2-0.7c-2.6,2.2-5.7,1.2-8.6,1.4c-5,0.2-8.1,3.6-10,7.2c-1.6,2.9-0.3,6.3,1.9,9.6
			C746.4,1344.8,749.9,1346.3,754.2,1345.5z M903.9,858.8c0,7.3,5.1,13.1,11.9,12.6c9.1-0.6,14.1-2.6,14.1-10.6
			c0-9.2-6.3-12.4-13.9-13.1C907.9,847,903.9,851.1,903.9,858.8z M476.1,1257.5c6.3,0,6.3,0,10.7-3.4c6.7-5.3,5.8-13.7-1.2-18.5
			c-6.2-4.3-10.9-0.2-15.3,2.3c-2.2,1.3-6,2.9-6.2,7C463.6,1252.8,468,1257.5,476.1,1257.5z M970.9,1307.9c0,6.8,3.8,10.6,10.6,10.7
			c7.9,0.1,15.7-5.5,15.4-12.9c-0.3-7-3.5-11.3-13.5-11.7C977.8,1293.6,970.9,1301.4,970.9,1307.9z M1146.7,820.7
			c-5.3-0.5-9.1,1.1-12.7,4.8c-2.4,2.5-3.1,5.2-2.4,7.9c0.9,3.9,2.1,8.4,6.3,10c5.6,2.1,10.7-1.6,16.2-2.2c0.4,0,0.8-0.6,1-1
			c2.3-4.3,4.2-9.1,2.3-13.7C1155.5,822.2,1151.7,819.5,1146.7,820.7z M1123.3,1201.5c-1.2,0-2.3,0-3.5,0c-6.3,0-7.9,1.6-7.9,8
			c0,1.3,0,2.7,0,4c0.2,8.5,11,15.3,18.6,11.5c1.9-1,4.3-2.2,5.2-4.4C1139.7,1210.6,1133.8,1201.5,1123.3,1201.5z M870,1292
			c0.5-8.3-3.6-12.2-9.8-12.5c-9.1-0.4-16.2,5.3-16.2,12.7c0,7,4.8,11.1,13.2,11.2C864.2,1303.6,869.9,1298.4,870,1292z
			 M784.5,1129.5c5.2,0.9,10-0.9,12.5-6.8c2.3-5.3,1.2-10.1-2.5-13.2c-3.7-3-12.6-3.7-16.3-1.7c-6.9,3.7-6.8,8.1-5.8,14.8
			C772.9,1127,777.8,1129.5,784.5,1129.5z M720,1219.4c1.7-7.6-6-11.4-12-11.8c-8.2-0.5-15.1,4.7-15,10.6c0.1,8,5.2,12.2,14.9,12.3
			C715,1230.5,720,1225.9,720,1219.4z M595.8,1105.5c9.7,0,12.2-2.3,12.2-10.4c0-7-4.5-11.4-11.9-11.6c-1.3,0-2.8,0.4-3.8-0.7
			c-1.4-1.5-2.2-0.9-3.7,0.1c-9.4,6.4-9.7,11.8-1.9,20.1C589.7,1106.3,592.9,1105.1,595.8,1105.5z M528.7,1349.5
			c-6.3-0.2-15.4,6.5-15.3,11.4c0.1,8.4,3.8,13.3,10.4,13.6c6.8,0.3,15.9-7.5,16.2-13.7C540.2,1355.2,534.7,1349.7,528.7,1349.5z
			 M812.7,913.6c9.7,0,14.3-3.9,14.3-12c0-8.2-2.9-11.8-9.3-12c-7.8-0.3-16.4,6.6-16.5,16C801.1,909.4,807,913.6,812.7,913.6z
			 M728,1384.3c0-6.8-5.8-12.8-12.3-12.8c-8.4,0.1-13.7,4.1-13.7,10.1c0.1,7.9,6,13.8,13.9,13.9C724.1,1395.5,728,1392,728,1384.3z
			 M991.9,922.4c-1.4,5.2,1.9,9.3,5.5,13.4c2.8,3.1,5.3-1.8,8-0.2c0.1,0.1,0.3,0,0.5,0c4.5,0.9,7.1-2.2,9.6-5
			c1.6-1.8,0.1-11.3-1.4-13.3c-2.3-3-5.2-5-8.9-5.6c-4.3-0.7-8,2.7-12.4,2.4c-0.9-0.1-0.9,1.6-0.9,2.6
			C991.9,918.3,991.9,920,991.9,922.4z M852,959c0.3-5-2.6-8-6.7-9.8c-6-2.6-12.8-0.1-18.4,6.6c-4.7,5.6-3.2,10.6,3.4,13.9
			c4.6,2.3,8.4,2,13,0.1C848.3,967.7,852,964,852,959z M658.8,1113.5c3.4,0.2,8,0.5,11.4-4.3c2.3-3.3,2.1-8.8-0.4-12.1
			c-4.9-6.7-10.8-6.3-17.6-3.8c-5.2,1.9-7.9,5.8-7.2,11.8c0.6,5.1,4.4,8.5,9.5,8.5C655.5,1113.5,656.5,1113.5,658.8,1113.5z
			 M761.3,1049.5c-9.6,0-13.3,3.2-13.3,11.2c0,7.8,3.3,10.8,11.9,10.8c8.8,0,14.1-4.5,14.1-11.9
			C774,1051.9,770.9,1049.5,761.3,1049.5z M860.9,1029.5c7.2,0,15.2-7.1,15-13.6c-0.2-6.5-5.4-11.2-11-10.9c-8.2,0.5-15,5.3-15,15.4
			C850,1025.7,854.5,1029.5,860.9,1029.5z M1094.9,727.6c1.4,0,2.1,0,2.8,0c6.4,0,12.3-5.2,12.2-10.8c0-8.8-2.5-11.2-11.4-11.2
			c-1.2,0-2.3,0-3.5,0c-3.4-0.1-6,0-8.5,3.8c-2.9,4.4-3.3,8.3-1.8,12.6C1086.5,726.7,1090.6,728.5,1094.9,727.6z M971.9,1246.9
			c1-5.4-3.5-9.8-12.7-10c-5.8-0.1-13.4,7.7-13.3,13.7c0.1,4.8,6.2,10.9,11.1,10.9C964.6,1261.6,971.9,1254.4,971.9,1246.9z
			 M792,1392.4c0-7.1-5-12.3-12.2-11.9c-8.2,0.5-14.6,3.7-14,9.9c0.7,8.4,5,13,14,13C788,1403.5,792,1399.9,792,1392.4z
			 M731.2,1265.5c-9.1,0-14.2,4.3-14.2,11.8c0,5.5,6.6,10.2,14.5,10.2c7.6,0,12.5-4.6,12.5-11.5C744,1269,739.7,1265.5,731.2,1265.5
			z M938.5,1179.5c-9.8,0.1-16.5,4.9-16.5,12c0,6.4,4.6,12,9.9,12c8.7,0,16-6.3,16-13.9C948,1184.1,943.6,1179.5,938.5,1179.5z
			 M899.9,1074.8c0.1-6-3.6-11.8-7.8-11.2c-5.4,0.8-11,1.6-15.3,5.7c-3.2,3-3.9,9.5-1.4,13.3c3.5,5.4,6.4,5.9,16.7,3
			C896.8,1084.3,899.9,1080.1,899.9,1074.8z M904.9,1417.5c0.5,0,1-0.1,1.5,0c4.8,0.9,8.8-0.8,10.7-5.1c1.7-3.9,1.7-8.2-0.9-12.2
			c-3.8-5.8-15-6.7-19.8-0.7c-1.5,1.8-4.6,1.7-4.6,5.5C891.9,1414,895.1,1417.5,904.9,1417.5z M550.8,1409.5
			c-2.5,0.4-5.7-0.9-8.4,0.7c-4.2,2.6-6,10.8-3.8,15.7c2.2,4.9,7.3,6.8,13.5,5c1.3-0.4,2.5-0.9,3.8-1.2c5.2-1.5,8.9-8.1,7.4-13.3
			C561.8,1410.6,559.8,1409.5,550.8,1409.5z M1005.2,1375.5c8.7,0,14.8-4.7,14.8-11.6c0-7.7-2.5-10.4-9.8-10.5
			c-8.8,0-16.4,5.9-16,12.7C994.4,1372.2,999.1,1376.2,1005.2,1375.5z M613.1,1413.5c-8.5,0-12.9,4.3-13.2,12.1
			c-0.2,4.9,2,5.8,6.2,6c6,0.3,12.2-1.4,18.1,1.1c1.1,0.5,1.3-0.1,1.7-1C629.6,1422.9,623,1413.5,613.1,1413.5z M1034.7,1409.5
			c-9.6,0-16.5,6.9-15.8,15.3c0.2,2.7,1.3,4.1,4.1,3.5c5.6-1.3,11.2-1,16.8-0.3c1.4,0.2,2.3,0,2.9-1.2c2-3.9,2.3-8.4,0.4-12
			C1041.6,1411.9,1039.2,1407.9,1034.7,1409.5z M1080.3,1427.5c7.3,0,14.2,0,21.2,0c2.5,0,5.9,0.2,5.9-2.9c0-3.2-2.6-6.4-5.9-6.9
			C1092.9,1416.4,1084.9,1417.3,1080.3,1427.5z M675.9,1431.4C675.9,1431.5,675.9,1431.5,675.9,1431.4c2.7,0,5.3,0.1,8,0
			c1.5-0.1,3.6,0.6,4-1.8c0.3-1.9-0.1-3.3-1.7-4.8c-7.2-6.5-16-3.7-21.6,3.3c-1.3,1.6-0.5,3.3,1.9,3.3
			C669.6,1431.5,672.7,1431.4,675.9,1431.4z"/>
		<path class="st2" d="M1179.9,595.6c-5,1-7.9,5.2-11.5,8.2c-32.5,26.9-68.4,48-108.4,61.6c-42.8,14.6-86.9,19.1-131.9,18.4
			c-32.8-0.5-65.4-3.8-98-6.8c-27.6-2.6-55.3-5.5-83.1-6.7c-31.2-1.3-62.3-1.2-93.2,3.3c-37,5.4-72.1,16.2-105.3,33.9
			c-27.6,14.7-52.8,32.6-75.2,54.2c-17.6,17-34.5,34.8-51.7,52.2c-31.5,32.1-65.7,60.9-105.5,82.4c-37.5,20.3-77.3,34.3-118.7,44.2
			c-20.5,4.9-41.2,9.4-62.2,11.6c-32,3.2-63.8,2.5-95.1-5.8c-13.9-3.7-27.3-8.6-40.2-14.7c0-177.8,0-355.6-0.1-533.4
			C0,394.4-3.7,0,0,0c390.3,0.1,789.7,0.1,1180,0c3.7,0,0,394.4,0,398.1C1179.9,464,1179.9,529.8,1179.9,595.6z"/>
		<path class="st3" d="M1179.9,896.6c-4.1,0.4-7.1,3.5-11.6,3.6c-5.5,0.1-12.2-3.3-12.9-8.4c-0.4-3,0.3-5.6,1.8-7.5
			c4.1-4.9,8.9-8.7,16-7.8c2.7,0.3,3.4,4.5,6.7,3.1C1179.9,885.2,1179.9,890.9,1179.9,896.6z"/>
		<path class="st3" d="M1179.9,1339.5c-6.6,0.1-13.3,1.1-17.7-5.9c-1.5-2.5-3.4-13.1-1.9-15.4c1.5-2.2,12.2-4.7,14.9-3
			c1.5,1,2.9,1.4,4.6,1.4C1179.9,1324.2,1179.9,1331.8,1179.9,1339.5z"/>
		<path class="st3" d="M1179.9,1066.5c-3.6,0.2-6.8-1.9-10.3-2.6c-1.9-0.4-5.9-3.9-5-8.1c0.6-3-0.5-6.2,1.8-9
			c3.5-4.3,7.4-7.5,13.4-6.3C1179.9,1049.2,1179.9,1057.9,1179.9,1066.5z"/>
		<path class="st3" d="M1179.9,792.6c-4.9,0.7-5.6-4.1-7.5-6.6c-4.6-6.1,0.3-16.9,7.5-17.4C1179.9,776.6,1179.9,784.6,1179.9,792.6z
			"/>
		<path class="st3" d="M568,1202.4c0-8.6,4.4-12.9,13-12.9c7.9,0,13.1,6.3,13,15.5c-0.1,5-8.1,11.5-14.3,11.5
			C572.4,1216.5,568,1211.2,568,1202.4z"/>
		<path class="st3" d="M576,1367.1c0-7.9,4.8-12.7,12.7-12.6c8.7,0.1,14.3,5.6,14.3,14c0,6.9-6,11.9-13.9,11.9
			C581.4,1380.5,576,1375,576,1367.1z"/>
		<path class="st3" d="M628.2,1304.5c7.7,0,13.9,5.4,13.8,12.1c-0.1,9-5.3,14.8-13,15c-4.5,0.1-7.5-3.1-11.1-4.8
			c-3.2-1.6-1.9-5.4-1.9-8.2C615.9,1310.2,621,1304.5,628.2,1304.5z"/>
		<path class="st3" d="M640,1376.1c0.3-2.1-1.1-5.2,0.6-6.9c2.6-2.6,5.7-5.1,9.1-6.5c4.3-1.9,12.8,1.8,15.2,5.8
			c0.2,0.3,0.5,0.5,0.6,0.8c3.2,7-4.1,19.4-11.8,20.2C645.3,1390.3,640,1385.4,640,1376.1z"/>
		<path class="st3" d="M1153.7,1008.5c-4.8,0-11.5-3.7-12.6-7c-1.3-4,0.9-13.7,3.8-16.2c2.3-2,13.7-2.6,17.1-0.8
			c3.4,1.8,6.7,9.2,5.9,13.5C1167.1,1003,1159.6,1008.5,1153.7,1008.5z"/>
		<path class="st3" d="M552,1309c0-7.7,5-11.8,12.8-12.7c7.7-0.9,13.4,6.8,13.3,13.2c-0.2,8.6-4.4,12.9-12.9,13.1
			C558.6,1322.7,550.2,1317,552,1309z"/>
		<path class="st3" d="M604.1,1272.5c-9.9,0-12.1-2.2-12.1-12.2c0-8.1,4.8-13.8,11.9-13.8c8.2-0.1,14.8,5.9,13.9,14
			C617.1,1267.5,614.5,1274.1,604.1,1272.5z"/>
		<path class="st3" d="M1079.9,931.9c0,7.5-4.9,12.6-12.1,12.7c-8.3,0-14.3-5.3-13.8-12.9c0.6-10.4,2.6-12,12.7-13
			C1073.3,917.9,1081.7,924.1,1079.9,931.9z"/>
		<path class="st3" d="M1055.9,874.8c0,5.7-6,11.7-11.8,11.8c-8.9,0.1-15.1-5.8-15.1-14c0-8.4,5.2-11.3,14.3-11.9
			C1049.2,860.2,1055.9,868,1055.9,874.8z"/>
		<path class="st3" d="M1036.3,1160.5c-6.9,0-12.3-5.9-12.3-13.6c0-6.7,5.4-12.3,11.8-12.4c8.2-0.1,15.1,6.1,15.1,13.7
			C1051,1154.5,1043.8,1160.5,1036.3,1160.5z"/>
		<path class="st3" d="M972.3,1152.5c-5.7-0.1-12.5-7.3-12.3-13.1c0.2-7.9,8.1-14.2,17.5-13.7c2.5,0.1,9.9,7,10.1,9.3
			C988,1143.5,980,1152.6,972.3,1152.5z"/>
		<path class="st3" d="M950.3,1068.5c8.6,0.1,12.8,4.2,12.6,12.3c-0.2,6.9-7.9,13.9-14.8,13.5c-6-0.3-12.2-6.6-12.2-12.1
			C936,1074.8,942.7,1068.5,950.3,1068.5z"/>
		<path class="st3" d="M1057.7,752.6c8.8,0,13.2,3.8,13.2,11.4c0,7.6-5.5,12.6-13.8,12.6c-9.4,0-13.2-3.2-13.2-11.2
			C1044,756.9,1048.6,752.6,1057.7,752.6z"/>
		<path class="st3" d="M912.1,1024.9c-2.4-8,4.2-10.8,8.7-13.7c4-2.6,9.7-0.6,13.7,1.7c2.9,1.6,3.9,5.7,3.5,9.6
			c-1,8.7-5.7,13.9-14.5,14.1c-4.4,0.1-7-3.5-10.7-4.8C910.7,1031,912.4,1027.2,912.1,1024.9z"/>
		<path class="st3" d="M1067.9,821.6c0-4.9,7.1-12.8,11.3-12.7c8.6,0.3,15.7,5.8,15.7,12.1c-0.1,9.3-6.4,14.8-16.5,14.5
			C1073.9,835.3,1067.9,827.4,1067.9,821.6z"/>
		<path class="st3" d="M1105.6,892.6c-7.7,0.8-13-3.8-13.5-11.8c-0.6-7.6,5.9-13.3,14.8-13.2c6.9,0,12.5,6.2,13,14.3
			C1120,886.1,1111.5,892.6,1105.6,892.6z"/>
		<path class="st3" d="M1031.9,817c0,7.9-4,11.6-12.3,11.6c-6.6,0-14.3-6.4-14.2-11.7c0.1-9.8,3.7-13.3,13.4-13.3
			C1027.3,803.6,1031.9,808.3,1031.9,817z"/>
		<path class="st3" d="M781,1283.3c0-6,6.2-14.5,10.5-14.4c8.2,0.2,16.7,6.5,16.5,12.4c-0.2,5.6-10.8,15.2-16.9,15.3
			C786.4,1296.6,781,1289.5,781,1283.3z"/>
		<path class="st3" d="M540.6,1264.5c-8.5,0-12.6-4-12.6-12.4c0-8.1,4.6-13.5,11.5-13.6c7.9-0.1,14.4,6.1,14.5,13.9
			C554.1,1259.4,548.4,1264.5,540.6,1264.5z"/>
		<path class="st3" d="M568,1144.8c0,8.6-4.5,13.8-12.1,13.8c-8.1,0-12-4.7-11.9-14.5c0-8,4.5-12.6,12.2-12.5
			C563.9,1131.6,568,1136.1,568,1144.8z"/>
		<path class="st3" d="M971.2,712.6c-8.7,1.9-13.5-6.6-13.1-13.2c0.4-7.5,4.2-12.7,12.3-12.8c6.1-0.1,13.6,7.8,13.6,14.2
			C983.9,708.8,979.8,712.6,971.2,712.6z"/>
		<path class="st3" d="M1034.9,1253.7c1,6.4-7.3,14.5-13.8,13.9c-4.6-0.5-13.1-6.2-13.1-9.5c0-8.7,8.8-17.8,16.9-17.5
			C1029,1240.6,1034.9,1248.5,1034.9,1253.7z"/>
		<path class="st3" d="M854,1397.9c0,7.8-6.2,13.7-14.2,13.6c-4.2-0.1-11.5-6.4-11.5-10.1c0.2-9.4,5.6-17,14.7-16.9
			C850.1,1384.5,854,1389.2,854,1397.9z"/>
		<path class="st3" d="M1130.1,950.6c-9.5,0.8-13.1-5-13.8-14.4c-0.2-3.1,7.9-11.3,11.1-11.2c8.6,0.2,16.4,5.4,16.5,11.1
			C1144.1,943.3,1137.2,950.6,1130.1,950.6z"/>
		<path class="st3" d="M1091,976.5c7.8,0,12.9,5.5,12.9,13.8c0,6.6-5.4,12.1-11.9,12.2c-7.4,0.1-14.1-6.5-14.1-13.9
			C1077.9,980.5,1082.2,976.5,1091,976.5z"/>
		<path class="st3" d="M1045.9,707.6c0.7,2.9-0.8,5.7-2.9,8.2c-3.2,3.8-8.3,3.3-12.3,4.1c-5.5,1.1-10.8-5.9-10.8-12.4
			c0-5.3,6.4-13.9,10.4-13.9C1041.6,693.8,1045.9,697.6,1045.9,707.6z"/>
		<path class="st3" d="M994.1,744.6c6.6,0,13.8,7.2,13.8,13.7c0,6.7-5.4,12.7-11.9,12.2c-8.4-0.6-14.5-5.3-15-13.7
			C980.7,750.4,987.2,744.6,994.1,744.6z"/>
		<path class="st3" d="M1062.3,1216.5c-10.3,0-14.4-3.3-14.4-11.7c0-7.3,5.2-12.3,12.7-12.3c8.4,0,14.3,5.7,14.3,13.7
			C1074.9,1213.7,1071.4,1216.5,1062.3,1216.5z"/>
		<path class="st3" d="M1095.9,1320.4c0.4-2.4-1.1-6.4,0.8-7.1c3.9-1.5,6.8-5.3,11.6-4.9c7.8,0.6,15.5,4.1,14.5,12.1
			c-1,8.8-1.8,11.9-13.3,12.2c-5.4,0.1-8.6-3.6-12.9-5.2C1094.8,1326.8,1096.2,1322.9,1095.9,1320.4z"/>
		<path class="st3" d="M888,966.1c0-7.5,6.2-13.5,13.8-13.5c6.9,0,12.2,4.8,12.2,11.1c0,8.9-5.5,14.8-13.8,14.9
			C894.8,978.6,886.3,973,888,966.1z"/>
		<path class="st3" d="M1127.9,1048.6c0,7.9-3.1,11.3-11,10.9c-11-0.6-14.2-3.9-15-14c-0.6-7.8,6.1-10.7,14-10.9
			C1123,1034.4,1127.9,1040.3,1127.9,1048.6z"/>
		<path class="st3" d="M504,1192.6c0-7.8,4-11.2,13.1-11.1c8.1,0.2,12.7,5.2,13,14.3c0.2,7.5-6.1,10.3-13.9,10.6
			C509,1206.7,504,1200.9,504,1192.6z"/>
		<path class="st3" d="M1013.6,1077.5c5.2,0,11.7,4,13,8.9c1.2,4.7-0.7,9.1-3.4,12.9c-1.9,2.6-12.6,2.9-16.7,0.9
			c-5.8-2.8-9.8-12.5-6.1-17.5C1003.2,1079.1,1008.2,1076.9,1013.6,1077.5z"/>
		<path class="st3" d="M975.9,1031.3c0-7.1,4.7-11.7,12-11.7c9.7,0,15.1,4.7,15,13.1c-0.1,4.6-6.3,11.7-10.3,11.5
			C982.2,1043.7,974.3,1039.7,975.9,1031.3z"/>
		<path class="st3" d="M817,1352.5c-7.7,0-11.1-2.6-12-8.1c-1.1-7.4,2.7-14.1,8.6-15.9c3.3-1,6.3-3,9.8-1.4c7.5,3.4,9.3,14.6,3.4,21
			C823.9,1351.2,820.8,1354.2,817,1352.5z"/>
		<path class="st3" d="M1058.9,1310.3c0.2,3.4,0.2,8.2-1.8,9.3c-3.9,2.1-7,6.2-12.2,6c-5.9-0.3-12.8-7.6-12.9-14.3
			c-0.1-4.7,9.5-11.8,16-11.8C1054.6,1299.5,1058.9,1303.7,1058.9,1310.3z"/>
		<path class="st3" d="M892,1226.5c9.8-0.3,16.8,6.4,16.9,13.8c0.1,7.3-5,11.7-11.8,12.1c-6.2,0.4-14.1-6.8-14.1-12.5
			C882.9,1231.5,886.2,1226.6,892,1226.5z"/>
		<path class="st3" d="M797,995.6c9.5,0.4,15.8,6.2,15.6,14.3c-0.2,6.1-6.9,12.2-12.5,11.6c-8.9-0.9-14-7.4-14.2-17.5
			C786,1000.2,792.5,995.4,797,995.6z"/>
		<path class="st3" d="M875.9,920.6c-5.1,0-11-3.8-11.8-7.7c-1.3-6.2,1.3-14.1,6.4-15.7c5.2-1.7,10.9-1,16.3-0.2
			c2.5,0.4,4.4,11.8,2.7,15.1C886.6,917.6,882.5,921.2,875.9,920.6z"/>
		<path class="st3" d="M943.9,750.8c1.4,6.8-6.3,11.4-11.9,11.8c-6,0.4-14.5-7.8-14-13.8c0.5-6.6,3.9-13.1,12.5-12.3
			C937.5,737.1,944,743.4,943.9,750.8z"/>
		<path class="st3" d="M996.7,1208.5c-8.4,0-9.7-0.9-12.5-8.6c-1.8-4.9,1.5-8.1,4.3-11.4c4.7-5.6,11.1-4.3,17-3.7
			c4.1,0.4,7.4,12.3,4.3,15.3c-1.2,1.1-1.6,2.2-2.2,3.6C1005.2,1208.9,1000.6,1209,996.7,1208.5z"/>
		<path class="st3" d="M967.9,809.3c0,7.3-3.4,9.8-11.6,10.4c-8.6,0.7-13.8-7.7-14.4-14.9c-0.5-6.1,5.3-10.2,13.7-10.2
			C962.9,794.6,967.9,800.6,967.9,809.3z"/>
		<path class="st3" d="M1028.4,992.4c-7.3,2-10.6-3.5-13.8-8.3c-3.5-5.4,2.8-15.4,9.3-15.5c4.6,0,8.7,0,12.7,3.8
			c5.2,4.9,3.7,10.7,2.8,15.6C1038.6,992.7,1033.2,993.1,1028.4,992.4z"/>
		<path class="st3" d="M834.2,1221.5c6.5,0,12.3,4.4,13.6,10c0.8,3.5-2.6,5.1-3.9,7.7c-2.9,5.7-8.7,6.3-14.1,5.5
			c-5.1-0.8-9.5-3.6-10.3-9.4c-0.7-5.1,0.8-12.4,8.4-13.1C830.1,1222,832.4,1221.4,834.2,1221.5z"/>
		<path class="st3" d="M1175.9,1163c0,8.9-0.7,9.8-9,11.4c-7.4,1.5-12.1-1.4-15.4-6.6c-3.4-5.3,0.6-9.4,0.9-14
			c0.2-3.4,12.7-5.1,15.6-2.5c0.4,0.3,0.6,0.9,1,1C1175.6,1153.6,1176.6,1158.2,1175.9,1163z"/>
		<path class="st3" d="M1119.9,1378.4c0-7.2,5.3-12,13.2-11.9c8.1,0.1,14.3,5,14.3,9.2c0.2,10.3-5.9,14.4-15,14.7
			C1126.6,1390.6,1119.9,1384.1,1119.9,1378.4z"/>
		<path class="st3" d="M840,850.2c0-7.3,6.9-12.9,16.4-13.3c3.9-0.2,9.8,6.6,9.5,12.9c-0.3,8-5.8,12.5-13.9,12.7
			C844.4,862.7,839.9,858,840,850.2z"/>
		<path class="st3" d="M845.5,1112.7c2.2,0,4.5-0.6,6.4,0.1c3.7,1.3,7.6,3,8,7.8c0.6,5.9,0.5,12-5,15.5c-7.2,4.6-19.7-2.8-19.9-11.4
			c0-0.5,0-1,0-1.5C834.9,1113.1,836.3,1111.8,845.5,1112.7z"/>
		<path class="st3" d="M940.5,904.6c8.2,0,13.4,4.6,13.5,11.9c0,7.5-5.2,12.1-13.8,12.1c-8.4,0-12.2-4-12.2-12.9
			C927.9,908.1,931.9,904.6,940.5,904.6z"/>
		<path class="st3" d="M931.9,1298.1c0,8.7-2.4,11-10,11.5c-8.6,0.6-15.3-6.6-15.1-13.6c0.2-6.9,4.3-11.5,10.6-11.5
			C925.2,1284.5,933.7,1288.1,931.9,1298.1z"/>
		<path class="st3" d="M1084.9,1274.5c-8.1,0-13-4.8-13-12.6c0-4.9,7-11.8,12.2-11.3c11,1,14.2,3.5,15.3,14.5
			C1099.9,1269.1,1093.1,1274.6,1084.9,1274.5z"/>
		<path class="st3" d="M719.8,1120.5c-8.4,0-11.8-3.3-11.8-11.1c0-8.3,6-13,16.5-12.9c6.7,0,9.4,3.3,9.5,11.7
			C734,1115.1,727.9,1120.5,719.8,1120.5z"/>
		<path class="st3" d="M632,1152.2c0,7.2-4.5,11.4-12.2,11.4c-6-0.1-14.7-6.1-14.4-10.4c0.7-8.3,1.3-13.9,12.5-13.6
			C626.8,1139.7,632,1144.2,632,1152.2z"/>
		<path class="st3" d="M964.8,962.6c4.2-0.1,8.3,0,11,3.8c3.7,5.2,2.2,10.5-0.4,15.6c-1.4,2.8-11.7,5.5-14.9,4.1
			c-7.8-3.4-10.9-9.1-8.5-17.5c1-3.5,4.3-5.6,8.3-6C961.9,962.4,963.4,962.6,964.8,962.6z"/>
		<path class="st3" d="M758,1164.8c-0.1,8-6.8,15.4-14,15.4c-4.8,0-12.2-6.9-12-11.6c0.4-7.6,4.6-15.5,15.7-14.2
			C753.8,1155.1,758,1158.8,758,1164.8z"/>
		<path class="st3" d="M956.9,1356.6c0,7.5-5,11.6-14.6,11.8c-5.1,0.1-11.3-9.5-11.3-17.4c0-5,3.8-8.8,9.3-8.4
			C949.9,1343.2,957.1,1347.4,956.9,1356.6z"/>
		<path class="st3" d="M1057.9,1370.5c-0.9-8.3,6.2-13.5,12.9-13.9c5.6-0.4,12.2,6.5,12.1,12.2c-0.1,8.9-5.4,13.7-15.1,13.7
			C1061.1,1382.5,1057.9,1378.5,1057.9,1370.5z"/>
		<path class="st3" d="M680,1268.7c0,7.4-2.6,10-10.6,9.8c-10.7-0.3-15.8-3.2-15.5-11.2c0.3-8.1,5.1-12.7,14-12.7
			C675.1,1254.5,680,1260.2,680,1268.7z"/>
		<path class="st3" d="M1159.9,1271.6c0,8-3,10.8-11.9,10.9c-6.4,0.1-12.2-7-12.1-14.8c0-7.7,3.7-11.2,11.9-11.1
			C1155.3,1256.5,1159.9,1262.3,1159.9,1271.6z"/>
		<path class="st3" d="M872.6,1192.5c-8.5,0-14.7-5.3-14.7-12.5c0-5.4,3.9-8.9,7.4-10.9c2.9-1.7,7.8-1.9,11.9,1.5
			c3.6,3,7,5,6.9,10.4C883.8,1192.7,882.5,1193.1,872.6,1192.5z"/>
		<path class="st3" d="M698.7,1038.5c7.3-0.2,10.5,3.7,10.3,12.2c-0.2,6-7.3,13.8-12.9,13.8c-6.9-0.1-12.2-5.7-12.1-12.8
			C684,1044.1,690.2,1038.5,698.7,1038.5z"/>
		<path class="st3" d="M757,1225.9c0.6-10,5.5-14.4,15.3-14.4c4.6,0,9.7,4.9,9.7,9.1c0,9.5-6.2,16.7-13.9,16.9
			C762.8,1237.7,755.5,1233,757,1225.9z"/>
		<path class="st3" d="M882.2,1336.5c8.4,0,11.8,3.1,11.8,10.9c0,8.2-5.2,13.1-14,13.1c-6.8,0-12-5.1-12-11.8
			C867.9,1341.6,873.8,1336.5,882.2,1336.5z"/>
		<path class="st3" d="M836,1067.7c0,7.2-3.7,10.7-11.3,10.8c-8,0.1-15-6.6-14.6-14.5c0.3-6.4,5.3-10.9,14.4-11.1
			C829.1,1052.8,836,1061.9,836,1067.7z"/>
		<path class="st3" d="M913,1120.5c7.6,0,10.9,3.3,10.9,10.9c0,8.1-5.7,13.1-15.1,13.1c-7.5,0-10.9-3.3-10.9-10.8
			C897.9,1126.7,904.9,1120.5,913,1120.5z"/>
		<path class="st3" d="M968,1424.5c-9.1,0-12.1-3.3-12-13.3c0-8.3,2.9-10.7,13.1-10.7c5.9,0,11.9,6.1,11.9,12
			C980.9,1421.3,977.5,1424.5,968,1424.5z"/>
		<path class="st3" d="M807.8,1186.5c-9.1,0-12.9-3.1-12.8-10.5c0.1-5.3,5.8-13.4,15.2-12.6c6.1,0.5,11.7,4.7,11.7,9.8
			C821.9,1182.9,818,1186.5,807.8,1186.5z"/>
		<path class="st3" d="M704,1326.6c0,7.3-2.9,10-10.9,9.8c-8.4-0.2-15.2-5-15.1-12c0.1-7.7,5.3-12,14.5-12
			C699.1,1312.5,704,1318.6,704,1326.6z"/>
		<path class="st3" d="M892.3,788.6c7.6,0,13.5,5.4,13.5,12.2c0,6.7-6.2,11.8-14.4,11.8c-8.7,0-11.5-3.5-11.5-14.5
			C880,792,884.4,788.6,892.3,788.6z"/>
		<path class="st3" d="M1111.9,1155.6c-0.9,2.7,2,6.8-2.8,8.7c-5.9,2.3-11.7,3.7-17-1.2c-3.4-3.2-6.2-13-3.9-16.9
			c1.4-2.4,4.1-5,7.2-5.2c4.9-0.2,9.6,1.5,13.7,4.3C1113,1147.9,1111.7,1151.8,1111.9,1155.6z"/>
		<path class="st3" d="M696,1159c0,7-4.4,12-10.8,12.5c-9.6,0.8-15.4-2.6-16.7-10c-0.7-4.1,4.9-10.9,8.8-12.2
			c6.5-2.1,11.8,0.1,17.2,3.3C697.3,1154.4,695.3,1157.2,696,1159z"/>
		<path class="st3" d="M1064,1040.8c-0.6,2.5,1.2,6-1.1,7.1c-4.2,2-9,3.8-13.8,2.4c-8-2.5-11-7.4-10.2-15.5c0.4-4,2.1-6.5,6.1-7.8
			c7.2-2.3,15.5,0.3,18.5,6.6C1064.5,1035.7,1063.9,1038.5,1064,1040.8z"/>
		<path class="st3" d="M1087.6,1096.6c1.7,5.3-0.7,9-5,10.9c-4.5,2-9.6,2.3-13.3-1.8c-1.6-1.7-5,0-5.2-2.9c-0.3-4.6-1-9.4,0.3-13.9
			c1.3-4.8,12.5-7.3,17.2-4C1085.5,1087.8,1090.1,1090.5,1087.6,1096.6z"/>
		<path class="st3" d="M1151.7,1104.5c1.8,5.8-1.3,9.6-6,11.8c-4.9,2.3-9.6,1.6-14.2-2.3c-2.6-2.2-3.8-4.1-3.9-7.1
			c-0.1-3.4-0.6-7.2,1.2-10c3.3-5.3,12.2-5.6,17.9-2.3C1151.1,1097,1153.1,1099.7,1151.7,1104.5z"/>
		<path class="st3" d="M1120,784.6c-8.8,0-12.1-3.1-12.1-11.3c0-7.4,5.9-12.7,13.9-12.7c7.2,0,12.1,4.7,12.1,11.9
			C1133.9,779.6,1128.2,784.6,1120,784.6z"/>
		<path class="st3" d="M655.9,1210.6c1.5,4.6-1.9,7.2-5.3,8.9c-4.5,2.2-9.5,1.7-13.8-0.8c-9.8-5.8-7.6-6.3-6.8-15.5
			c0.1-1.5,7.5-6.4,9.4-6.3c4.9,0.3,9.6,1.5,13.8,4.4C656.5,1203.6,656.1,1206.9,655.9,1210.6z"/>
		<path class="st3" d="M503.5,1291.5c5.2,0.1,10.6,3,11.3,6.7c0.9,4.8,1.2,9.6-3.1,13.4c-7,6.3-18.5,4.4-23.3-3.8
			c-2.2-3.7,3.1-12.7,7.3-14.6C498.3,1292,501,1291.1,503.5,1291.5z"/>
		<path class="st3" d="M968,863.6c0.2-4-1.5-8.6,4.8-10.3c7.4-1.9,11.7-0.8,16.2,4c4.2,4.5,4.1,9.9,2.3,14.2
			c-2.7,6.7-13.5,7.8-19.5,3.4C967.6,871.8,967.6,868,968,863.6z"/>
		<path class="st3" d="M754.2,1344.5c-4.2,0.8-7.8-0.7-10.8-5.2c-2.2-3.3-3.5-6.7-1.9-9.6c2-3.6,5.1-7,10-7.2c2.9-0.1,6,0.8,8.6-1.4
			c0.8-0.7,1.4,0.1,2,0.7c4.7,4.3,7.2,9.6,5.7,15.9c-0.9,3.7-4.3,5.7-7.9,6.7C758.4,1344.8,756.6,1344.5,754.2,1344.5z"/>
		<path class="st3" d="M903.9,857.8c0-7.7,4-11.8,12.1-11.1c7.6,0.7,14,3.9,13.9,13.1c0,8-5,10-14.1,10.6
			C909,870.9,903.9,865.1,903.9,857.8z"/>
		<path class="st3" d="M476.1,1256.5c-8.1,0-12.5-4.7-12.1-12.6c0.2-4.1,4-5.8,6.2-7c4.4-2.5,9.1-6.5,15.3-2.3
			c7,4.8,7.9,13.2,1.2,18.5C482.4,1256.5,482.4,1256.5,476.1,1256.5z"/>
		<path class="st3" d="M970.9,1306.9c0-6.5,6.9-14.2,12.5-14c9.9,0.4,13.1,4.7,13.5,11.7c0.3,7.4-7.5,13-15.4,12.9
			C974.7,1317.4,970.9,1313.7,970.9,1306.9z"/>
		<path class="st3" d="M1146.7,819.7c5-1.2,8.9,1.5,10.7,5.8c1.9,4.6,0,9.4-2.3,13.7c-0.2,0.4-0.6,1-1,1c-5.4,0.7-10.6,4.3-16.2,2.2
			c-4.3-1.6-5.4-6.1-6.3-10c-0.6-2.7,0-5.4,2.4-7.9C1137.5,820.8,1141.4,819.1,1146.7,819.7z"/>
		<path class="st3" d="M1123.3,1200.5c10.5,0,16.4,9.1,12.4,19c-0.9,2.3-3.3,3.5-5.2,4.4c-7.6,3.9-18.4-3-18.6-11.5c0-1.3,0-2.7,0-4
			c0-6.4,1.6-8,7.9-8C1121,1200.5,1122.1,1200.5,1123.3,1200.5z"/>
		<path class="st3" d="M870,1291c0,6.4-5.8,11.6-12.8,11.4c-8.5-0.2-13.3-4.2-13.2-11.2c0-7.4,7-13,16.2-12.7
			C866.4,1278.8,870.4,1282.7,870,1291z"/>
		<path class="st3" d="M784.5,1128.5c-6.7,0-11.5-2.6-12.1-6.8c-1-6.8-1.1-11.1,5.8-14.8c3.7-2,12.7-1.3,16.3,1.7
			c3.7,3.1,4.8,7.9,2.5,13.2C794.5,1127.7,789.7,1129.4,784.5,1128.5z"/>
		<path class="st3" d="M720,1218.4c0,6.5-5,11.2-12.1,11.1c-9.7,0-14.8-4.2-14.9-12.3c-0.1-5.9,6.8-11.2,15-10.6
			C714,1207,721.7,1210.8,720,1218.4z"/>
		<path class="st3" d="M595.8,1104.5c-2.9-0.4-6.1,0.7-9.1-2.5c-7.8-8.3-7.5-13.7,1.9-20.1c1.5-1,2.4-1.6,3.7-0.1
			c1,1.1,2.5,0.7,3.8,0.7c7.4,0.2,11.9,4.6,11.9,11.6C608,1102.3,605.4,1104.5,595.8,1104.5z"/>
		<path class="st3" d="M528.7,1348.5c6,0.2,11.5,5.7,11.3,11.2c-0.3,6.2-9.5,14-16.2,13.7c-6.5-0.3-10.3-5.2-10.4-13.6
			C513.3,1355,522.4,1348.3,528.7,1348.5z"/>
		<path class="st3" d="M812.7,912.6c-5.6,0-11.6-4.2-11.5-8c0.2-9.4,8.7-16.3,16.5-16c6.4,0.2,9.3,3.8,9.3,12
			C827,908.7,822.4,912.6,812.7,912.6z"/>
		<path class="st3" d="M728,1383.3c0,7.7-3.9,11.3-12.1,11.2c-7.9-0.1-13.8-5.9-13.9-13.9c-0.1-6.1,5.3-10.1,13.7-10.1
			C722.1,1370.4,728,1376.5,728,1383.3z"/>
		<path class="st3" d="M991.9,921.4c0-2.4,0-4.1,0-5.8c0-1,0-2.6,0.9-2.6c4.4,0.3,8.1-3.1,12.4-2.4c3.6,0.6,6.6,2.6,8.9,5.6
			c1.5,2,3,11.5,1.4,13.3c-2.5,2.8-5.1,5.9-9.6,5c-0.2,0-0.4,0.1-0.5,0c-2.7-1.5-5.2,3.4-8,0.2C993.9,930.7,990.5,926.6,991.9,921.4
			z"/>
		<path class="st3" d="M852,958c0,5-3.6,8.7-8.7,10.8c-4.6,1.9-8.4,2.2-13-0.1c-6.6-3.3-8.1-8.3-3.4-13.9c5.6-6.7,12.4-9.3,18.4-6.6
			C849.3,950,852.3,953,852,958z"/>
		<path class="st3" d="M658.8,1112.5c-2.4,0-3.3,0-4.3,0c-5.1,0-8.9-3.4-9.5-8.5c-0.7-6,2-9.9,7.2-11.8c6.8-2.5,12.6-2.9,17.6,3.8
			c2.4,3.3,2.6,8.8,0.4,12.1C666.8,1113.1,662.2,1112.8,658.8,1112.5z"/>
		<path class="st3" d="M761.3,1048.5c9.7,0,12.7,2.4,12.7,10.1c0,7.4-5.3,11.9-14.1,11.9c-8.5,0-11.9-3-11.9-10.8
			C748,1051.7,751.7,1048.5,761.3,1048.5z"/>
		<path class="st3" d="M860.9,1028.5c-6.4,0-10.9-3.8-10.9-9.1c0-10.1,6.8-14.9,15-15.4c5.5-0.3,10.8,4.4,11,10.9
			C876.1,1021.5,868.1,1028.5,860.9,1028.5z"/>
		<path class="st3" d="M1094.9,726.6c-4.3,0.9-8.4-0.8-10.2-5.7c-1.6-4.2-1.1-8.2,1.8-12.6c2.5-3.8,5.1-3.8,8.5-3.8
			c1.2,0,2.3,0,3.5,0c8.9,0,11.4,2.4,11.4,11.2c0,5.6-5.8,10.7-12.2,10.8C1097,726.6,1096.3,726.6,1094.9,726.6z"/>
		<path class="st3" d="M971.9,1245.9c0,7.5-7.4,14.7-14.9,14.6c-4.9-0.1-11-6.1-11.1-10.9c-0.1-6,7.5-13.9,13.3-13.7
			C968.4,1236.1,972.9,1240.4,971.9,1245.9z"/>
		<path class="st3" d="M792,1391.4c0,7.5-3.9,11.1-12.2,11.1c-9,0-13.2-4.7-14-13c-0.5-6.2,5.8-9.4,14-9.9
			C787,1379.1,792,1384.3,792,1391.4z"/>
		<path class="st3" d="M731.2,1264.5c8.5,0,12.8,3.5,12.8,10.5c0,7-4.9,11.5-12.5,11.5c-7.9,0-14.5-4.7-14.5-10.2
			C717,1268.7,722.1,1264.5,731.2,1264.5z"/>
		<path class="st3" d="M938.5,1178.5c5.1,0,9.4,4.6,9.4,10.1c0,7.6-7.3,13.9-16,13.9c-5.3,0-9.9-5.6-9.9-12
			C922,1183.4,928.7,1178.6,938.5,1178.5z"/>
		<path class="st3" d="M899.9,1073.8c-0.1,5.3-3.1,9.5-7.9,10.8c-10.2,2.9-13.2,2.4-16.7-3c-2.5-3.8-1.8-10.3,1.4-13.3
			c4.3-4,9.9-4.9,15.3-5.7C896.3,1062.1,900,1067.8,899.9,1073.8z"/>
		<path class="st3" d="M904.9,1416.5c-9.8,0-13.1-3.5-13.2-12.4c0-3.9,3.1-3.8,4.6-5.5c4.8-5.9,16-5.1,19.8,0.7
			c2.7,4.1,2.6,8.3,0.9,12.2c-1.9,4.3-5.9,6-10.7,5.1C905.9,1416.4,905.4,1416.5,904.9,1416.5z"/>
		<path class="st3" d="M550.8,1408.5c9,0,10.9,1.1,12.6,6.9c1.5,5.2-2.2,11.8-7.4,13.3c-1.3,0.4-2.5,0.8-3.8,1.2
			c-6.2,1.8-11.3,0-13.5-5c-2.2-4.9-0.4-13.1,3.8-15.7C545.1,1407.5,548.3,1408.8,550.8,1408.5z"/>
		<path class="st3" d="M1005.2,1374.5c-6.1,0.7-10.7-3.3-11-9.3c-0.3-6.8,7.3-12.7,16-12.7c7.2,0,9.8,2.7,9.8,10.5
			C1019.9,1369.7,1013.8,1374.5,1005.2,1374.5z"/>
		<path class="st3" d="M613.1,1412.5c9.9,0,16.5,9.5,12.8,18.2c-0.4,0.9-0.6,1.4-1.7,1c-5.9-2.5-12.1-0.8-18.1-1.1
			c-4.2-0.2-6.4-1.1-6.2-6C600.2,1416.8,604.6,1412.5,613.1,1412.5z"/>
		<path class="st3" d="M1034.7,1408.5c4.5-1.5,6.9,2.4,8.4,5.3c1.8,3.6,1.6,8.1-0.4,12c-0.6,1.2-1.5,1.3-2.9,1.2
			c-5.6-0.7-11.2-1-16.8,0.3c-2.8,0.6-3.9-0.8-4.1-3.5C1018.2,1415.4,1025.1,1408.5,1034.7,1408.5z"/>
		<path class="st3" d="M1080.3,1426.5c4.6-10.2,12.6-11.1,21.2-9.8c3.3,0.5,5.8,3.7,5.9,6.9c0,3.1-3.4,2.9-5.9,2.9
			C1094.5,1426.5,1087.6,1426.5,1080.3,1426.5z"/>
		<path class="st3" d="M675.9,1430.4c-3.2,0-6.3,0.1-9.5,0c-2.4-0.1-3.2-1.7-1.9-3.3c5.6-7,14.3-9.8,21.6-3.3
			c1.6,1.5,2.1,2.9,1.7,4.8c-0.4,2.4-2.5,1.8-4,1.8C681.2,1430.5,678.6,1430.5,675.9,1430.4C675.9,1430.5,675.9,1430.5,675.9,1430.4
			z"/>
	</g>
</g>
</svg>
